<?xml version="1.0"?>
<svg height="300" version="1.1" width="600" xmlns:xlink="http://www.w3.org/1999/xlink" xmlns="http://www.w3.org/2000/svg"><g><g><polygon fill="#00d0d9" points="50.00,280.00 51.00,280.00 51.00,277.40 50.00,277.40" /><polygon fill="#015dff" points="51.00,280.00 52.00,280.00 52.00,277.40 51.00,277.40" /><polygon fill="#7200ff" points="52.00,280.00 53.00,280.00 53.00,277.40 52.00,277.40" /><polygon fill="#f300b2" points="53.00,280.00 54.00,280.00 54.00,277.40 53.00,277.40" /><polygon fill="#ff1048" points="54.00,280.00 55.00,280.00 55.00,277.40 54.00,277.40" /><polygon fill="#ff2b2b" points="55.00,280.00 56.00,280.00 56.00,277.40 55.00,277.40" /><polygon fill="#ff1048" points="56.00,280.00 57.00,280.00 57.00,277.40 56.00,277.40" /><polygon fill="#f300b2" points="57.00,280.00 58.00,280.00 58.00,277.40 57.00,277.40" /><polygon fill="#7200ff" points="58.00,280.00 59.00,280.00 59.00,277.40 58.00,277.40" /><polygon fill="#015dff" points="59.00,280.00 60.00,280.00 60.00,277.40 59.00,277.40" /><polygon fill="#00d0d9" points="60.00,280.00 61.00,280.00 61.00,277.40 60.00,277.40" /><polygon fill="#00ff67" points="61.00,280.00 62.00,280.00 62.00,277.40 61.00,277.40" /><polygon fill="#67ff00" points="62.00,280.00 63.00,280.00 63.00,277.40 62.00,277.40" /><polygon fill="#ebbc00" points="63.00,280.00 64.00,280.00 64.00,277.40 63.00,277.40" /><polygon fill="#ff5208" points="64.00,280.00 65.00,280.00 65.00,277.40 64.00,277.40" /><polygon fill="#ff2b2b" points="65.00,280.00 66.00,280.00 66.00,277.40 65.00,277.40" /><polygon fill="#ff5208" points="66.00,280.00 67.00,280.00 67.00,277.40 66.00,277.40" /><polygon fill="#ebbc00" points="67.00,280.00 68.00,280.00 68.00,277.40 67.00,277.40" /><polygon fill="#67ff00" points="68.00,280.00 69.00,280.00 69.00,277.40 68.00,277.40" /><polygon fill="#00ff67" points="69.00,280.00 70.00,280.00 70.00,277.40 69.00,277.40" /><polygon fill="#00d0d9" points="70.00,280.00 71.00,280.00 71.00,277.40 70.00,277.40" /><polygon fill="#015dff" points="71.00,280.00 72.00,280.00 72.00,277.40 71.00,277.40" /><polygon fill="#7200ff" points="72.00,280.00 73.00,280.00 73.00,277.40 72.00,277.40" /><polygon fill="#f300b2" points="73.00,280.00 74.00,280.00 74.00,277.40 73.00,277.40" /><polygon fill="#ff1048" points="74.00,280.00 75.00,280.00 75.00,277.40 74.00,277.40" /><polygon fill="#ff2b2b" points="75.00,280.00 76.00,280.00 76.00,277.40 75.00,277.40" /><polygon fill="#ff1048" points="76.00,280.00 77.00,280.00 77.00,277.40 76.00,277.40" /><polygon fill="#f300b2" points="77.00,280.00 78.00,280.00 78.00,277.40 77.00,277.40" /><polygon fill="#7200ff" points="78.00,280.00 79.00,280.00 79.00,277.40 78.00,277.40" /><polygon fill="#015dff" points="79.00,280.00 80.00,280.00 80.00,277.40 79.00,277.40" /><polygon fill="#00d0d9" points="80.00,280.00 81.00,280.00 81.00,277.40 80.00,277.40" /><polygon fill="#00ff72" points="81.00,280.00 82.00,280.00 82.00,277.40 81.00,277.40" /><polygon fill="#3eff19" points="82.00,280.00 83.00,280.00 83.00,277.40 82.00,277.40" /><polygon fill="#7dff00" points="83.00,280.00 84.00,280.00 84.00,277.40 83.00,277.40" /><polygon fill="#92ff00" points="84.00,280.00 85.00,280.00 85.00,277.40 84.00,277.40" /><polygon fill="#7dff00" points="85.00,280.00 86.00,280.00 86.00,277.40 85.00,277.40" /><polygon fill="#3eff19" points="86.00,280.00 87.00,280.00 87.00,277.40 86.00,277.40" /><polygon fill="#00ff67" points="87.00,280.00 88.00,280.00 88.00,277.40 87.00,277.40" /><polygon fill="#00faa8" points="88.00,280.00 89.00,280.00 89.00,277.40 88.00,277.40" /><polygon fill="#00d9d0" points="89.00,280.00 90.00,280.00 90.00,277.40 89.00,277.40" /><polygon fill="#00d0d9" points="90.00,280.00 91.00,280.00 91.00,277.40 90.00,277.40" /><polygon fill="#00d0d9" points="91.00,280.00 92.00,280.00 92.00,277.40 91.00,277.40" /><polygon fill="#00d0d9" points="92.00,280.00 93.00,280.00 93.00,277.40 92.00,277.40" /><polygon fill="#00d0d9" points="93.00,280.00 94.00,280.00 94.00,277.40 93.00,277.40" /><polygon fill="#00d0d9" points="94.00,280.00 95.00,280.00 95.00,277.40 94.00,277.40" /><polygon fill="#00d0d9" points="95.00,280.00 96.00,280.00 96.00,277.40 95.00,277.40" /><polygon fill="#00d0d9" points="96.00,280.00 97.00,280.00 97.00,277.40 96.00,277.40" /><polygon fill="#00d0d9" points="97.00,280.00 98.00,280.00 98.00,277.40 97.00,277.40" /><polygon fill="#00d0d9" points="98.00,280.00 99.00,280.00 99.00,277.40 98.00,277.40" /><polygon fill="#00d0d9" points="99.00,280.00 100.00,280.00 100.00,277.40 99.00,277.40" /><polygon fill="#00d0d9" points="50.00,277.40 51.00,277.40 51.00,274.80 50.00,274.80" /><polygon fill="#00d9d0" points="51.00,277.40 52.00,277.40 52.00,274.80 51.00,274.80" /><polygon fill="#00faa8" points="52.00,277.40 53.00,277.40 53.00,274.80 52.00,274.80" /><polygon fill="#00ff67" points="53.00,277.40 54.00,277.40 54.00,274.80 53.00,274.80" /><polygon fill="#3eff19" points="54.00,277.40 55.00,277.40 55.00,274.80 54.00,274.80" /><polygon fill="#7dff00" points="55.00,277.40 56.00,277.40 56.00,274.80 55.00,274.80" /><polygon fill="#92ff00" points="56.00,277.40 57.00,277.40 57.00,274.80 56.00,274.80" /><polygon fill="#7dff00" points="57.00,277.40 58.00,277.40 58.00,274.80 57.00,274.80" /><polygon fill="#3eff19" points="58.00,277.40 59.00,277.40 59.00,274.80 58.00,274.80" /><polygon fill="#00ff72" points="59.00,277.40 60.00,277.40 60.00,274.80 59.00,274.80" /><polygon fill="#00d0d9" points="60.00,277.40 61.00,277.40 61.00,274.80 60.00,274.80" /><polygon fill="#0067ff" points="61.00,277.40 62.00,277.40 62.00,274.80 61.00,274.80" /><polygon fill="#4810ff" points="62.00,277.40 63.00,277.40 63.00,274.80 62.00,274.80" /><polygon fill="#8800ff" points="63.00,277.40 64.00,277.40 64.00,274.80 63.00,274.80" /><polygon fill="#9d00ff" points="64.00,277.40 65.00,277.40 65.00,274.80 64.00,274.80" /><polygon fill="#8800ff" points="65.00,277.40 66.00,277.40 66.00,274.80 65.00,274.80" /><polygon fill="#4810ff" points="66.00,277.40 67.00,277.40 67.00,274.80 66.00,274.80" /><polygon fill="#015dff" points="67.00,277.40 68.00,277.40 68.00,274.80 67.00,274.80" /><polygon fill="#009dff" points="68.00,277.40 69.00,277.40 69.00,274.80 68.00,274.80" /><polygon fill="#00c6e2" points="69.00,277.40 70.00,277.40 70.00,274.80 69.00,274.80" /><polygon fill="#00d0d9" points="70.00,277.40 71.00,277.40 71.00,274.80 70.00,274.80" /><polygon fill="#00d9d0" points="71.00,277.40 72.00,277.40 72.00,274.80 71.00,274.80" /><polygon fill="#00faa8" points="72.00,277.40 73.00,277.40 73.00,274.80 72.00,274.80" /><polygon fill="#00ff67" points="73.00,277.40 74.00,277.40 74.00,274.80 73.00,274.80" /><polygon fill="#3eff19" points="74.00,277.40 75.00,277.40 75.00,274.80 74.00,274.80" /><polygon fill="#7dff00" points="75.00,277.40 76.00,277.40 76.00,274.80 75.00,274.80" /><polygon fill="#92ff00" points="76.00,277.40 77.00,277.40 77.00,274.80 76.00,274.80" /><polygon fill="#7dff00" points="77.00,277.40 78.00,277.40 78.00,274.80 77.00,274.80" /><polygon fill="#3eff19" points="78.00,277.40 79.00,277.40 79.00,274.80 78.00,274.80" /><polygon fill="#00ff72" points="79.00,277.40 80.00,277.40 80.00,274.80 79.00,274.80" /><polygon fill="#00d0d9" points="80.00,277.40 81.00,277.40 81.00,274.80 80.00,274.80" /><polygon fill="#0072ff" points="81.00,277.40 82.00,277.40 82.00,274.80 81.00,274.80" /><polygon fill="#193eff" points="82.00,277.40 83.00,277.40 83.00,274.80 82.00,274.80" /><polygon fill="#193eff" points="83.00,277.40 84.00,277.40 84.00,274.80 83.00,274.80" /><polygon fill="#007dff" points="84.00,277.40 85.00,277.40 85.00,274.80 84.00,274.80" /><polygon fill="#00d0d9" points="85.00,277.40 86.00,277.40 86.00,274.80 85.00,274.80" /><polygon fill="#00ff88" points="86.00,277.40 87.00,277.40 87.00,274.80 86.00,274.80" /><polygon fill="#10ff48" points="87.00,277.40 88.00,277.40 88.00,274.80 87.00,274.80" /><polygon fill="#10ff48" points="88.00,277.40 89.00,277.40 89.00,274.80 88.00,274.80" /><polygon fill="#00ff7d" points="89.00,277.40 90.00,277.40 90.00,274.80 89.00,274.80" /><polygon fill="#00d0d9" points="90.00,277.40 91.00,277.40 91.00,274.80 90.00,274.80" /><polygon fill="#0067ff" points="91.00,277.40 92.00,277.40 92.00,274.80 91.00,274.80" /><polygon fill="#4810ff" points="92.00,277.40 93.00,277.40 93.00,274.80 92.00,274.80" /><polygon fill="#8800ff" points="93.00,277.40 94.00,277.40 94.00,274.80 93.00,274.80" /><polygon fill="#9d00ff" points="94.00,277.40 95.00,277.40 95.00,274.80 94.00,274.80" /><polygon fill="#8800ff" points="95.00,277.40 96.00,277.40 96.00,274.80 95.00,274.80" /><polygon fill="#4810ff" points="96.00,277.40 97.00,277.40 97.00,274.80 96.00,274.80" /><polygon fill="#015dff" points="97.00,277.40 98.00,277.40 98.00,274.80 97.00,274.80" /><polygon fill="#009dff" points="98.00,277.40 99.00,277.40 99.00,274.80 98.00,274.80" /><polygon fill="#00c6e2" points="99.00,277.40 100.00,277.40 100.00,274.80 99.00,274.80" /><polygon fill="#00d0d9" points="50.00,274.80 51.00,274.80 51.00,272.20 50.00,272.20" /><polygon fill="#00d0d9" points="51.00,274.80 52.00,274.80 52.00,272.20 51.00,272.20" /><polygon fill="#00d0d9" points="52.00,274.80 53.00,274.80 53.00,272.20 52.00,272.20" /><polygon fill="#00d0d9" points="53.00,274.80 54.00,274.80 54.00,272.20 53.00,272.20" /><polygon fill="#00d0d9" points="54.00,274.80 55.00,274.80 55.00,272.20 54.00,272.20" /><polygon fill="#00d0d9" points="55.00,274.80 56.00,274.80 56.00,272.20 55.00,272.20" /><polygon fill="#00d0d9" points="56.00,274.80 57.00,274.80 57.00,272.20 56.00,272.20" /><polygon fill="#00d0d9" points="57.00,274.80 58.00,274.80 58.00,272.20 57.00,272.20" /><polygon fill="#00d0d9" points="58.00,274.80 59.00,274.80 59.00,272.20 58.00,272.20" /><polygon fill="#00d0d9" points="59.00,274.80 60.00,274.80 60.00,272.20 59.00,272.20" /><polygon fill="#00d0d9" points="60.00,274.80 61.00,274.80 61.00,272.20 60.00,272.20" /><polygon fill="#00c6e2" points="61.00,274.80 62.00,274.80 62.00,272.20 61.00,272.20" /><polygon fill="#009dff" points="62.00,274.80 63.00,274.80 63.00,272.20 62.00,272.20" /><polygon fill="#015dff" points="63.00,274.80 64.00,274.80 64.00,272.20 63.00,272.20" /><polygon fill="#4810ff" points="64.00,274.80 65.00,274.80 65.00,272.20 64.00,272.20" /><polygon fill="#8800ff" points="65.00,274.80 66.00,274.80 66.00,272.20 65.00,272.20" /><polygon fill="#9d00ff" points="66.00,274.80 67.00,274.80 67.00,272.20 66.00,272.20" /><polygon fill="#8800ff" points="67.00,274.80 68.00,274.80 68.00,272.20 67.00,272.20" /><polygon fill="#4810ff" points="68.00,274.80 69.00,274.80 69.00,272.20 68.00,272.20" /><polygon fill="#0067ff" points="69.00,274.80 70.00,274.80 70.00,272.20 69.00,272.20" /><polygon fill="#00d0d9" points="70.00,274.80 71.00,274.80 71.00,272.20 70.00,272.20" /><polygon fill="#00ff7d" points="71.00,274.80 72.00,274.80 72.00,272.20 71.00,272.20" /><polygon fill="#10ff48" points="72.00,274.80 73.00,274.80 73.00,272.20 72.00,272.20" /><polygon fill="#10ff48" points="73.00,274.80 74.00,274.80 74.00,272.20 73.00,272.20" /><polygon fill="#00ff88" points="74.00,274.80 75.00,274.80 75.00,272.20 74.00,272.20" /><polygon fill="#00d0d9" points="75.00,274.80 76.00,274.80 76.00,272.20 75.00,272.20" /><polygon fill="#007dff" points="76.00,274.80 77.00,274.80 77.00,272.20 76.00,272.20" /><polygon fill="#193eff" points="77.00,274.80 78.00,274.80 78.00,272.20 77.00,272.20" /><polygon fill="#193eff" points="78.00,274.80 79.00,274.80 79.00,272.20 78.00,272.20" /><polygon fill="#0072ff" points="79.00,274.80 80.00,274.80 80.00,272.20 79.00,272.20" /><polygon fill="#00d0d9" points="80.00,274.80 81.00,274.80 81.00,272.20 80.00,272.20" /><polygon fill="#00ff72" points="81.00,274.80 82.00,274.80 82.00,272.20 81.00,272.20" /><polygon fill="#3eff19" points="82.00,274.80 83.00,274.80 83.00,272.20 82.00,272.20" /><polygon fill="#7dff00" points="83.00,274.80 84.00,274.80 84.00,272.20 83.00,272.20" /><polygon fill="#92ff00" points="84.00,274.80 85.00,274.80 85.00,272.20 84.00,272.20" /><polygon fill="#7dff00" points="85.00,274.80 86.00,274.80 86.00,272.20 85.00,272.20" /><polygon fill="#3eff19" points="86.00,274.80 87.00,274.80 87.00,272.20 86.00,272.20" /><polygon fill="#00ff67" points="87.00,274.80 88.00,274.80 88.00,272.20 87.00,272.20" /><polygon fill="#00faa8" points="88.00,274.80 89.00,274.80 89.00,272.20 88.00,272.20" /><polygon fill="#00d9d0" points="89.00,274.80 90.00,274.80 90.00,272.20 89.00,272.20" /><polygon fill="#00d0d9" points="90.00,274.80 91.00,274.80 91.00,272.20 90.00,272.20" /><polygon fill="#00d9d0" points="91.00,274.80 92.00,274.80 92.00,272.20 91.00,272.20" /><polygon fill="#00faa8" points="92.00,274.80 93.00,274.80 93.00,272.20 92.00,272.20" /><polygon fill="#00ff67" points="93.00,274.80 94.00,274.80 94.00,272.20 93.00,272.20" /><polygon fill="#3eff19" points="94.00,274.80 95.00,274.80 95.00,272.20 94.00,272.20" /><polygon fill="#7dff00" points="95.00,274.80 96.00,274.80 96.00,272.20 95.00,272.20" /><polygon fill="#92ff00" points="96.00,274.80 97.00,274.80 97.00,272.20 96.00,272.20" /><polygon fill="#7dff00" points="97.00,274.80 98.00,274.80 98.00,272.20 97.00,272.20" /><polygon fill="#3eff19" points="98.00,274.80 99.00,274.80 99.00,272.20 98.00,272.20" /><polygon fill="#00ff72" points="99.00,274.80 100.00,274.80 100.00,272.20 99.00,272.20" /><polygon fill="#00d0d9" points="50.00,272.20 51.00,272.20 51.00,269.60 50.00,269.60" /><polygon fill="#015dff" points="51.00,272.20 52.00,272.20 52.00,269.60 51.00,269.60" /><polygon fill="#7200ff" points="52.00,272.20 53.00,272.20 53.00,269.60 52.00,269.60" /><polygon fill="#f300b2" points="53.00,272.20 54.00,272.20 54.00,269.60 53.00,269.60" /><polygon fill="#ff1048" points="54.00,272.20 55.00,272.20 55.00,269.60 54.00,269.60" /><polygon fill="#ff2b2b" points="55.00,272.20 56.00,272.20 56.00,269.60 55.00,269.60" /><polygon fill="#ff1048" points="56.00,272.20 57.00,272.20 57.00,269.60 56.00,269.60" /><polygon fill="#f300b2" points="57.00,272.20 58.00,272.20 58.00,269.60 57.00,269.60" /><polygon fill="#7200ff" points="58.00,272.20 59.00,272.20 59.00,269.60 58.00,269.60" /><polygon fill="#015dff" points="59.00,272.20 60.00,272.20 60.00,269.60 59.00,269.60" /><polygon fill="#00d0d9" points="60.00,272.20 61.00,272.20 61.00,269.60 60.00,269.60" /><polygon fill="#00ff67" points="61.00,272.20 62.00,272.20 62.00,269.60 61.00,269.60" /><polygon fill="#67ff00" points="62.00,272.20 63.00,272.20 63.00,269.60 62.00,269.60" /><polygon fill="#ebbc00" points="63.00,272.20 64.00,272.20 64.00,269.60 63.00,269.60" /><polygon fill="#ff5208" points="64.00,272.20 65.00,272.20 65.00,269.60 64.00,269.60" /><polygon fill="#ff2b2b" points="65.00,272.20 66.00,272.20 66.00,269.60 65.00,269.60" /><polygon fill="#ff5208" points="66.00,272.20 67.00,272.20 67.00,269.60 66.00,269.60" /><polygon fill="#ebbc00" points="67.00,272.20 68.00,272.20 68.00,269.60 67.00,269.60" /><polygon fill="#67ff00" points="68.00,272.20 69.00,272.20 69.00,269.60 68.00,269.60" /><polygon fill="#00ff67" points="69.00,272.20 70.00,272.20 70.00,269.60 69.00,269.60" /><polygon fill="#00d0d9" points="70.00,272.20 71.00,272.20 71.00,269.60 70.00,269.60" /><polygon fill="#0067ff" points="71.00,272.20 72.00,272.20 72.00,269.60 71.00,269.60" /><polygon fill="#4810ff" points="72.00,272.20 73.00,272.20 73.00,269.60 72.00,269.60" /><polygon fill="#8800ff" points="73.00,272.20 74.00,272.20 74.00,269.60 73.00,269.60" /><polygon fill="#9d00ff" points="74.00,272.20 75.00,272.20 75.00,269.60 74.00,269.60" /><polygon fill="#8800ff" points="75.00,272.20 76.00,272.20 76.00,269.60 75.00,269.60" /><polygon fill="#4810ff" points="76.00,272.20 77.00,272.20 77.00,269.60 76.00,269.60" /><polygon fill="#015dff" points="77.00,272.20 78.00,272.20 78.00,269.60 77.00,269.60" /><polygon fill="#009dff" points="78.00,272.20 79.00,272.20 79.00,269.60 78.00,269.60" /><polygon fill="#00c6e2" points="79.00,272.20 80.00,272.20 80.00,269.60 79.00,269.60" /><polygon fill="#00d0d9" points="80.00,272.20 81.00,272.20 81.00,269.60 80.00,269.60" /><polygon fill="#00d9d0" points="81.00,272.20 82.00,272.20 82.00,269.60 81.00,269.60" /><polygon fill="#00faa8" points="82.00,272.20 83.00,272.20 83.00,269.60 82.00,269.60" /><polygon fill="#00ff67" points="83.00,272.20 84.00,272.20 84.00,269.60 83.00,269.60" /><polygon fill="#3eff19" points="84.00,272.20 85.00,272.20 85.00,269.60 84.00,269.60" /><polygon fill="#7dff00" points="85.00,272.20 86.00,272.20 86.00,269.60 85.00,269.60" /><polygon fill="#92ff00" points="86.00,272.20 87.00,272.20 87.00,269.60 86.00,269.60" /><polygon fill="#7dff00" points="87.00,272.20 88.00,272.20 88.00,269.60 87.00,269.60" /><polygon fill="#3eff19" points="88.00,272.20 89.00,272.20 89.00,269.60 88.00,269.60" /><polygon fill="#00ff72" points="89.00,272.20 90.00,272.20 90.00,269.60 89.00,269.60" /><polygon fill="#00d0d9" points="90.00,272.20 91.00,272.20 91.00,269.60 90.00,269.60" /><polygon fill="#0067ff" points="91.00,272.20 92.00,272.20 92.00,269.60 91.00,269.60" /><polygon fill="#4810ff" points="92.00,272.20 93.00,272.20 93.00,269.60 92.00,269.60" /><polygon fill="#8800ff" points="93.00,272.20 94.00,272.20 94.00,269.60 93.00,269.60" /><polygon fill="#9d00ff" points="94.00,272.20 95.00,272.20 95.00,269.60 94.00,269.60" /><polygon fill="#8800ff" points="95.00,272.20 96.00,272.20 96.00,269.60 95.00,269.60" /><polygon fill="#4810ff" points="96.00,272.20 97.00,272.20 97.00,269.60 96.00,269.60" /><polygon fill="#015dff" points="97.00,272.20 98.00,272.20 98.00,269.60 97.00,269.60" /><polygon fill="#009dff" points="98.00,272.20 99.00,272.20 99.00,269.60 98.00,269.60" /><polygon fill="#00c6e2" points="99.00,272.20 100.00,272.20 100.00,269.60 99.00,269.60" /><polygon fill="#00d0d9" points="50.00,269.60 51.00,269.60 51.00,267.00 50.00,267.00" /><polygon fill="#00d9d0" points="51.00,269.60 52.00,269.60 52.00,267.00 51.00,267.00" /><polygon fill="#00faa8" points="52.00,269.60 53.00,269.60 53.00,267.00 52.00,267.00" /><polygon fill="#00ff67" points="53.00,269.60 54.00,269.60 54.00,267.00 53.00,267.00" /><polygon fill="#3eff19" points="54.00,269.60 55.00,269.60 55.00,267.00 54.00,267.00" /><polygon fill="#7dff00" points="55.00,269.60 56.00,269.60 56.00,267.00 55.00,267.00" /><polygon fill="#92ff00" points="56.00,269.60 57.00,269.60 57.00,267.00 56.00,267.00" /><polygon fill="#7dff00" points="57.00,269.60 58.00,269.60 58.00,267.00 57.00,267.00" /><polygon fill="#3eff19" points="58.00,269.60 59.00,269.60 59.00,267.00 58.00,267.00" /><polygon fill="#00ff72" points="59.00,269.60 60.00,269.60 60.00,267.00 59.00,267.00" /><polygon fill="#00d0d9" points="60.00,269.60 61.00,269.60 61.00,267.00 60.00,267.00" /><polygon fill="#0067ff" points="61.00,269.60 62.00,269.60 62.00,267.00 61.00,267.00" /><polygon fill="#4810ff" points="62.00,269.60 63.00,269.60 63.00,267.00 62.00,267.00" /><polygon fill="#8800ff" points="63.00,269.60 64.00,269.60 64.00,267.00 63.00,267.00" /><polygon fill="#9d00ff" points="64.00,269.60 65.00,269.60 65.00,267.00 64.00,267.00" /><polygon fill="#8800ff" points="65.00,269.60 66.00,269.60 66.00,267.00 65.00,267.00" /><polygon fill="#4810ff" points="66.00,269.60 67.00,269.60 67.00,267.00 66.00,267.00" /><polygon fill="#015dff" points="67.00,269.60 68.00,269.60 68.00,267.00 67.00,267.00" /><polygon fill="#009dff" points="68.00,269.60 69.00,269.60 69.00,267.00 68.00,267.00" /><polygon fill="#00c6e2" points="69.00,269.60 70.00,269.60 70.00,267.00 69.00,267.00" /><polygon fill="#00d0d9" points="70.00,269.60 71.00,269.60 71.00,267.00 70.00,267.00" /><polygon fill="#00c6e2" points="71.00,269.60 72.00,269.60 72.00,267.00 71.00,267.00" /><polygon fill="#009dff" points="72.00,269.60 73.00,269.60 73.00,267.00 72.00,267.00" /><polygon fill="#015dff" points="73.00,269.60 74.00,269.60 74.00,267.00 73.00,267.00" /><polygon fill="#4810ff" points="74.00,269.60 75.00,269.60 75.00,267.00 74.00,267.00" /><polygon fill="#8800ff" points="75.00,269.60 76.00,269.60 76.00,267.00 75.00,267.00" /><polygon fill="#9d00ff" points="76.00,269.60 77.00,269.60 77.00,267.00 76.00,267.00" /><polygon fill="#8800ff" points="77.00,269.60 78.00,269.60 78.00,267.00 77.00,267.00" /><polygon fill="#4810ff" points="78.00,269.60 79.00,269.60 79.00,267.00 78.00,267.00" /><polygon fill="#0067ff" points="79.00,269.60 80.00,269.60 80.00,267.00 79.00,267.00" /><polygon fill="#00d0d9" points="80.00,269.60 81.00,269.60 81.00,267.00 80.00,267.00" /><polygon fill="#00ff72" points="81.00,269.60 82.00,269.60 82.00,267.00 81.00,267.00" /><polygon fill="#3eff19" points="82.00,269.60 83.00,269.60 83.00,267.00 82.00,267.00" /><polygon fill="#7dff00" points="83.00,269.60 84.00,269.60 84.00,267.00 83.00,267.00" /><polygon fill="#92ff00" points="84.00,269.60 85.00,269.60 85.00,267.00 84.00,267.00" /><polygon fill="#7dff00" points="85.00,269.60 86.00,269.60 86.00,267.00 85.00,267.00" /><polygon fill="#3eff19" points="86.00,269.60 87.00,269.60 87.00,267.00 86.00,267.00" /><polygon fill="#00ff67" points="87.00,269.60 88.00,269.60 88.00,267.00 87.00,267.00" /><polygon fill="#00faa8" points="88.00,269.60 89.00,269.60 89.00,267.00 88.00,267.00" /><polygon fill="#00d9d0" points="89.00,269.60 90.00,269.60 90.00,267.00 89.00,267.00" /><polygon fill="#00d0d9" points="90.00,269.60 91.00,269.60 91.00,267.00 90.00,267.00" /><polygon fill="#00d9d0" points="91.00,269.60 92.00,269.60 92.00,267.00 91.00,267.00" /><polygon fill="#00faa8" points="92.00,269.60 93.00,269.60 93.00,267.00 92.00,267.00" /><polygon fill="#00ff67" points="93.00,269.60 94.00,269.60 94.00,267.00 93.00,267.00" /><polygon fill="#3eff19" points="94.00,269.60 95.00,269.60 95.00,267.00 94.00,267.00" /><polygon fill="#7dff00" points="95.00,269.60 96.00,269.60 96.00,267.00 95.00,267.00" /><polygon fill="#92ff00" points="96.00,269.60 97.00,269.60 97.00,267.00 96.00,267.00" /><polygon fill="#7dff00" points="97.00,269.60 98.00,269.60 98.00,267.00 97.00,267.00" /><polygon fill="#3eff19" points="98.00,269.60 99.00,269.60 99.00,267.00 98.00,267.00" /><polygon fill="#00ff72" points="99.00,269.60 100.00,269.60 100.00,267.00 99.00,267.00" /><polygon fill="#00d0d9" points="50.00,267.00 51.00,267.00 51.00,264.40 50.00,264.40" /><polygon fill="#015dff" points="51.00,267.00 52.00,267.00 52.00,264.40 51.00,264.40" /><polygon fill="#7200ff" points="52.00,267.00 53.00,267.00 53.00,264.40 52.00,264.40" /><polygon fill="#f300b2" points="53.00,267.00 54.00,267.00 54.00,264.40 53.00,264.40" /><polygon fill="#ff1048" points="54.00,267.00 55.00,267.00 55.00,264.40 54.00,264.40" /><polygon fill="#ff2b2b" points="55.00,267.00 56.00,267.00 56.00,264.40 55.00,264.40" /><polygon fill="#ff1048" points="56.00,267.00 57.00,267.00 57.00,264.40 56.00,264.40" /><polygon fill="#f300b2" points="57.00,267.00 58.00,267.00 58.00,264.40 57.00,264.40" /><polygon fill="#7200ff" points="58.00,267.00 59.00,267.00 59.00,264.40 58.00,264.40" /><polygon fill="#015dff" points="59.00,267.00 60.00,267.00 60.00,264.40 59.00,264.40" /><polygon fill="#00d0d9" points="60.00,267.00 61.00,267.00 61.00,264.40 60.00,264.40" /><polygon fill="#00ff67" points="61.00,267.00 62.00,267.00 62.00,264.40 61.00,264.40" /><polygon fill="#67ff00" points="62.00,267.00 63.00,267.00 63.00,264.40 62.00,264.40" /><polygon fill="#ebbc00" points="63.00,267.00 64.00,267.00 64.00,264.40 63.00,264.40" /><polygon fill="#ff5208" points="64.00,267.00 65.00,267.00 65.00,264.40 64.00,264.40" /><polygon fill="#ff2b2b" points="65.00,267.00 66.00,267.00 66.00,264.40 65.00,264.40" /><polygon fill="#ff5208" points="66.00,267.00 67.00,267.00 67.00,264.40 66.00,264.40" /><polygon fill="#ebbc00" points="67.00,267.00 68.00,267.00 68.00,264.40 67.00,264.40" /><polygon fill="#67ff00" points="68.00,267.00 69.00,267.00 69.00,264.40 68.00,264.40" /><polygon fill="#00ff67" points="69.00,267.00 70.00,267.00 70.00,264.40 69.00,264.40" /><polygon fill="#00d0d9" points="70.00,267.00 71.00,267.00 71.00,264.40 70.00,264.40" /><polygon fill="#0072ff" points="71.00,267.00 72.00,267.00 72.00,264.40 71.00,264.40" /><polygon fill="#193eff" points="72.00,267.00 73.00,267.00 73.00,264.40 72.00,264.40" /><polygon fill="#193eff" points="73.00,267.00 74.00,267.00 74.00,264.40 73.00,264.40" /><polygon fill="#007dff" points="74.00,267.00 75.00,267.00 75.00,264.40 74.00,264.40" /><polygon fill="#00d0d9" points="75.00,267.00 76.00,267.00 76.00,264.40 75.00,264.40" /><polygon fill="#00ff88" points="76.00,267.00 77.00,267.00 77.00,264.40 76.00,264.40" /><polygon fill="#10ff48" points="77.00,267.00 78.00,267.00 78.00,264.40 77.00,264.40" /><polygon fill="#10ff48" points="78.00,267.00 79.00,267.00 79.00,264.40 78.00,264.40" /><polygon fill="#00ff7d" points="79.00,267.00 80.00,267.00 80.00,264.40 79.00,264.40" /><polygon fill="#00d0d9" points="80.00,267.00 81.00,267.00 81.00,264.40 80.00,264.40" /><polygon fill="#0072ff" points="81.00,267.00 82.00,267.00 82.00,264.40 81.00,264.40" /><polygon fill="#193eff" points="82.00,267.00 83.00,267.00 83.00,264.40 82.00,264.40" /><polygon fill="#193eff" points="83.00,267.00 84.00,267.00 84.00,264.40 83.00,264.40" /><polygon fill="#007dff" points="84.00,267.00 85.00,267.00 85.00,264.40 84.00,264.40" /><polygon fill="#00d0d9" points="85.00,267.00 86.00,267.00 86.00,264.40 85.00,264.40" /><polygon fill="#00ff88" points="86.00,267.00 87.00,267.00 87.00,264.40 86.00,264.40" /><polygon fill="#10ff48" points="87.00,267.00 88.00,267.00 88.00,264.40 87.00,264.40" /><polygon fill="#10ff48" points="88.00,267.00 89.00,267.00 89.00,264.40 88.00,264.40" /><polygon fill="#00ff7d" points="89.00,267.00 90.00,267.00 90.00,264.40 89.00,264.40" /><polygon fill="#00d0d9" points="90.00,267.00 91.00,267.00 91.00,264.40 90.00,264.40" /><polygon fill="#015dff" points="91.00,267.00 92.00,267.00 92.00,264.40 91.00,264.40" /><polygon fill="#7200ff" points="92.00,267.00 93.00,267.00 93.00,264.40 92.00,264.40" /><polygon fill="#f300b2" points="93.00,267.00 94.00,267.00 94.00,264.40 93.00,264.40" /><polygon fill="#ff1048" points="94.00,267.00 95.00,267.00 95.00,264.40 94.00,264.40" /><polygon fill="#ff2b2b" points="95.00,267.00 96.00,267.00 96.00,264.40 95.00,264.40" /><polygon fill="#ff1048" points="96.00,267.00 97.00,267.00 97.00,264.40 96.00,264.40" /><polygon fill="#f300b2" points="97.00,267.00 98.00,267.00 98.00,264.40 97.00,264.40" /><polygon fill="#7200ff" points="98.00,267.00 99.00,267.00 99.00,264.40 98.00,264.40" /><polygon fill="#015dff" points="99.00,267.00 100.00,267.00 100.00,264.40 99.00,264.40" /><polygon fill="#00d0d9" points="50.00,264.40 51.00,264.40 51.00,261.80 50.00,261.80" /><polygon fill="#00ff7d" points="51.00,264.40 52.00,264.40 52.00,261.80 51.00,261.80" /><polygon fill="#10ff48" points="52.00,264.40 53.00,264.40 53.00,261.80 52.00,261.80" /><polygon fill="#10ff48" points="53.00,264.40 54.00,264.40 54.00,261.80 53.00,261.80" /><polygon fill="#00ff88" points="54.00,264.40 55.00,264.40 55.00,261.80 54.00,261.80" /><polygon fill="#00d0d9" points="55.00,264.40 56.00,264.40 56.00,261.80 55.00,261.80" /><polygon fill="#007dff" points="56.00,264.40 57.00,264.40 57.00,261.80 56.00,261.80" /><polygon fill="#193eff" points="57.00,264.40 58.00,264.40 58.00,261.80 57.00,261.80" /><polygon fill="#193eff" points="58.00,264.40 59.00,264.40 59.00,261.80 58.00,261.80" /><polygon fill="#0072ff" points="59.00,264.40 60.00,264.40 60.00,261.80 59.00,261.80" /><polygon fill="#00d0d9" points="60.00,264.40 61.00,264.40 61.00,261.80 60.00,261.80" /><polygon fill="#00ff72" points="61.00,264.40 62.00,264.40 62.00,261.80 61.00,261.80" /><polygon fill="#3eff19" points="62.00,264.40 63.00,264.40 63.00,261.80 62.00,261.80" /><polygon fill="#7dff00" points="63.00,264.40 64.00,264.40 64.00,261.80 63.00,261.80" /><polygon fill="#92ff00" points="64.00,264.40 65.00,264.40 65.00,261.80 64.00,261.80" /><polygon fill="#7dff00" points="65.00,264.40 66.00,264.40 66.00,261.80 65.00,261.80" /><polygon fill="#3eff19" points="66.00,264.40 67.00,264.40 67.00,261.80 66.00,261.80" /><polygon fill="#00ff67" points="67.00,264.40 68.00,264.40 68.00,261.80 67.00,261.80" /><polygon fill="#00faa8" points="68.00,264.40 69.00,264.40 69.00,261.80 68.00,261.80" /><polygon fill="#00d9d0" points="69.00,264.40 70.00,264.40 70.00,261.80 69.00,261.80" /><polygon fill="#00d0d9" points="70.00,264.40 71.00,264.40 71.00,261.80 70.00,261.80" /><polygon fill="#00d0d9" points="71.00,264.40 72.00,264.40 72.00,261.80 71.00,261.80" /><polygon fill="#00d0d9" points="72.00,264.40 73.00,264.40 73.00,261.80 72.00,261.80" /><polygon fill="#00d0d9" points="73.00,264.40 74.00,264.40 74.00,261.80 73.00,261.80" /><polygon fill="#00d0d9" points="74.00,264.40 75.00,264.40 75.00,261.80 74.00,261.80" /><polygon fill="#00d0d9" points="75.00,264.40 76.00,264.40 76.00,261.80 75.00,261.80" /><polygon fill="#00d0d9" points="76.00,264.40 77.00,264.40 77.00,261.80 76.00,261.80" /><polygon fill="#00d0d9" points="77.00,264.40 78.00,264.40 78.00,261.80 77.00,261.80" /><polygon fill="#00d0d9" points="78.00,264.40 79.00,264.40 79.00,261.80 78.00,261.80" /><polygon fill="#00d0d9" points="79.00,264.40 80.00,264.40 80.00,261.80 79.00,261.80" /><polygon fill="#00d0d9" points="80.00,264.40 81.00,264.40 81.00,261.80 80.00,261.80" /><polygon fill="#00d9d0" points="81.00,264.40 82.00,264.40 82.00,261.80 81.00,261.80" /><polygon fill="#00faa8" points="82.00,264.40 83.00,264.40 83.00,261.80 82.00,261.80" /><polygon fill="#00ff67" points="83.00,264.40 84.00,264.40 84.00,261.80 83.00,261.80" /><polygon fill="#3eff19" points="84.00,264.40 85.00,264.40 85.00,261.80 84.00,261.80" /><polygon fill="#7dff00" points="85.00,264.40 86.00,264.40 86.00,261.80 85.00,261.80" /><polygon fill="#92ff00" points="86.00,264.40 87.00,264.40 87.00,261.80 86.00,261.80" /><polygon fill="#7dff00" points="87.00,264.40 88.00,264.40 88.00,261.80 87.00,261.80" /><polygon fill="#3eff19" points="88.00,264.40 89.00,264.40 89.00,261.80 88.00,261.80" /><polygon fill="#00ff72" points="89.00,264.40 90.00,264.40 90.00,261.80 89.00,261.80" /><polygon fill="#00d0d9" points="90.00,264.40 91.00,264.40 91.00,261.80 90.00,261.80" /><polygon fill="#015dff" points="91.00,264.40 92.00,264.40 92.00,261.80 91.00,261.80" /><polygon fill="#7200ff" points="92.00,264.40 93.00,264.40 93.00,261.80 92.00,261.80" /><polygon fill="#f300b2" points="93.00,264.40 94.00,264.40 94.00,261.80 93.00,261.80" /><polygon fill="#ff1048" points="94.00,264.40 95.00,264.40 95.00,261.80 94.00,261.80" /><polygon fill="#ff2b2b" points="95.00,264.40 96.00,264.40 96.00,261.80 95.00,261.80" /><polygon fill="#ff1048" points="96.00,264.40 97.00,264.40 97.00,261.80 96.00,261.80" /><polygon fill="#f300b2" points="97.00,264.40 98.00,264.40 98.00,261.80 97.00,261.80" /><polygon fill="#7200ff" points="98.00,264.40 99.00,264.40 99.00,261.80 98.00,261.80" /><polygon fill="#015dff" points="99.00,264.40 100.00,264.40 100.00,261.80 99.00,261.80" /><polygon fill="#00d0d9" points="50.00,261.80 51.00,261.80 51.00,259.20 50.00,259.20" /><polygon fill="#00ff72" points="51.00,261.80 52.00,261.80 52.00,259.20 51.00,259.20" /><polygon fill="#3eff19" points="52.00,261.80 53.00,261.80 53.00,259.20 52.00,259.20" /><polygon fill="#7dff00" points="53.00,261.80 54.00,261.80 54.00,259.20 53.00,259.20" /><polygon fill="#92ff00" points="54.00,261.80 55.00,261.80 55.00,259.20 54.00,259.20" /><polygon fill="#7dff00" points="55.00,261.80 56.00,261.80 56.00,259.20 55.00,259.20" /><polygon fill="#3eff19" points="56.00,261.80 57.00,261.80 57.00,259.20 56.00,259.20" /><polygon fill="#00ff67" points="57.00,261.80 58.00,261.80 58.00,259.20 57.00,259.20" /><polygon fill="#00faa8" points="58.00,261.80 59.00,261.80 59.00,259.20 58.00,259.20" /><polygon fill="#00d9d0" points="59.00,261.80 60.00,261.80 60.00,259.20 59.00,259.20" /><polygon fill="#00d0d9" points="60.00,261.80 61.00,261.80 61.00,259.20 60.00,259.20" /><polygon fill="#00c6e2" points="61.00,261.80 62.00,261.80 62.00,259.20 61.00,259.20" /><polygon fill="#009dff" points="62.00,261.80 63.00,261.80 63.00,259.20 62.00,259.20" /><polygon fill="#015dff" points="63.00,261.80 64.00,261.80 64.00,259.20 63.00,259.20" /><polygon fill="#4810ff" points="64.00,261.80 65.00,261.80 65.00,259.20 64.00,259.20" /><polygon fill="#8800ff" points="65.00,261.80 66.00,261.80 66.00,259.20 65.00,259.20" /><polygon fill="#9d00ff" points="66.00,261.80 67.00,261.80 67.00,259.20 66.00,259.20" /><polygon fill="#8800ff" points="67.00,261.80 68.00,261.80 68.00,259.20 67.00,259.20" /><polygon fill="#4810ff" points="68.00,261.80 69.00,261.80 69.00,259.20 68.00,259.20" /><polygon fill="#0067ff" points="69.00,261.80 70.00,261.80 70.00,259.20 69.00,259.20" /><polygon fill="#00d0d9" points="70.00,261.80 71.00,261.80 71.00,259.20 70.00,259.20" /><polygon fill="#00ff72" points="71.00,261.80 72.00,261.80 72.00,259.20 71.00,259.20" /><polygon fill="#3eff19" points="72.00,261.80 73.00,261.80 73.00,259.20 72.00,259.20" /><polygon fill="#7dff00" points="73.00,261.80 74.00,261.80 74.00,259.20 73.00,259.20" /><polygon fill="#92ff00" points="74.00,261.80 75.00,261.80 75.00,259.20 74.00,259.20" /><polygon fill="#7dff00" points="75.00,261.80 76.00,261.80 76.00,259.20 75.00,259.20" /><polygon fill="#3eff19" points="76.00,261.80 77.00,261.80 77.00,259.20 76.00,259.20" /><polygon fill="#00ff67" points="77.00,261.80 78.00,261.80 78.00,259.20 77.00,259.20" /><polygon fill="#00faa8" points="78.00,261.80 79.00,261.80 79.00,259.20 78.00,259.20" /><polygon fill="#00d9d0" points="79.00,261.80 80.00,261.80 80.00,259.20 79.00,259.20" /><polygon fill="#00d0d9" points="80.00,261.80 81.00,261.80 81.00,259.20 80.00,259.20" /><polygon fill="#00c6e2" points="81.00,261.80 82.00,261.80 82.00,259.20 81.00,259.20" /><polygon fill="#009dff" points="82.00,261.80 83.00,261.80 83.00,259.20 82.00,259.20" /><polygon fill="#015dff" points="83.00,261.80 84.00,261.80 84.00,259.20 83.00,259.20" /><polygon fill="#4810ff" points="84.00,261.80 85.00,261.80 85.00,259.20 84.00,259.20" /><polygon fill="#8800ff" points="85.00,261.80 86.00,261.80 86.00,259.20 85.00,259.20" /><polygon fill="#9d00ff" points="86.00,261.80 87.00,261.80 87.00,259.20 86.00,259.20" /><polygon fill="#8800ff" points="87.00,261.80 88.00,261.80 88.00,259.20 87.00,259.20" /><polygon fill="#4810ff" points="88.00,261.80 89.00,261.80 89.00,259.20 88.00,259.20" /><polygon fill="#0067ff" points="89.00,261.80 90.00,261.80 90.00,259.20 89.00,259.20" /><polygon fill="#00d0d9" points="90.00,261.80 91.00,261.80 91.00,259.20 90.00,259.20" /><polygon fill="#00ff72" points="91.00,261.80 92.00,261.80 92.00,259.20 91.00,259.20" /><polygon fill="#3eff19" points="92.00,261.80 93.00,261.80 93.00,259.20 92.00,259.20" /><polygon fill="#7dff00" points="93.00,261.80 94.00,261.80 94.00,259.20 93.00,259.20" /><polygon fill="#92ff00" points="94.00,261.80 95.00,261.80 95.00,259.20 94.00,259.20" /><polygon fill="#7dff00" points="95.00,261.80 96.00,261.80 96.00,259.20 95.00,259.20" /><polygon fill="#3eff19" points="96.00,261.80 97.00,261.80 97.00,259.20 96.00,259.20" /><polygon fill="#00ff67" points="97.00,261.80 98.00,261.80 98.00,259.20 97.00,259.20" /><polygon fill="#00faa8" points="98.00,261.80 99.00,261.80 99.00,259.20 98.00,259.20" /><polygon fill="#00d9d0" points="99.00,261.80 100.00,261.80 100.00,259.20 99.00,259.20" /><polygon fill="#00d0d9" points="50.00,259.20 51.00,259.20 51.00,256.60 50.00,256.60" /><polygon fill="#00d0d9" points="51.00,259.20 52.00,259.20 52.00,256.60 51.00,256.60" /><polygon fill="#00d0d9" points="52.00,259.20 53.00,259.20 53.00,256.60 52.00,256.60" /><polygon fill="#00d0d9" points="53.00,259.20 54.00,259.20 54.00,256.60 53.00,256.60" /><polygon fill="#00d0d9" points="54.00,259.20 55.00,259.20 55.00,256.60 54.00,256.60" /><polygon fill="#00d0d9" points="55.00,259.20 56.00,259.20 56.00,256.60 55.00,256.60" /><polygon fill="#00d0d9" points="56.00,259.20 57.00,259.20 57.00,256.60 56.00,256.60" /><polygon fill="#00d0d9" points="57.00,259.20 58.00,259.20 58.00,256.60 57.00,256.60" /><polygon fill="#00d0d9" points="58.00,259.20 59.00,259.20 59.00,256.60 58.00,256.60" /><polygon fill="#00d0d9" points="59.00,259.20 60.00,259.20 60.00,256.60 59.00,256.60" /><polygon fill="#00d0d9" points="60.00,259.20 61.00,259.20 61.00,256.60 60.00,256.60" /><polygon fill="#00c6e2" points="61.00,259.20 62.00,259.20 62.00,256.60 61.00,256.60" /><polygon fill="#009dff" points="62.00,259.20 63.00,259.20 63.00,256.60 62.00,256.60" /><polygon fill="#015dff" points="63.00,259.20 64.00,259.20 64.00,256.60 63.00,256.60" /><polygon fill="#4810ff" points="64.00,259.20 65.00,259.20 65.00,256.60 64.00,256.60" /><polygon fill="#8800ff" points="65.00,259.20 66.00,259.20 66.00,256.60 65.00,256.60" /><polygon fill="#9d00ff" points="66.00,259.20 67.00,259.20 67.00,256.60 66.00,256.60" /><polygon fill="#8800ff" points="67.00,259.20 68.00,259.20 68.00,256.60 67.00,256.60" /><polygon fill="#4810ff" points="68.00,259.20 69.00,259.20 69.00,256.60 68.00,256.60" /><polygon fill="#0067ff" points="69.00,259.20 70.00,259.20 70.00,256.60 69.00,256.60" /><polygon fill="#00d0d9" points="70.00,259.20 71.00,259.20 71.00,256.60 70.00,256.60" /><polygon fill="#00ff67" points="71.00,259.20 72.00,259.20 72.00,256.60 71.00,256.60" /><polygon fill="#67ff00" points="72.00,259.20 73.00,259.20 73.00,256.60 72.00,256.60" /><polygon fill="#ebbc00" points="73.00,259.20 74.00,259.20 74.00,256.60 73.00,256.60" /><polygon fill="#ff5208" points="74.00,259.20 75.00,259.20 75.00,256.60 74.00,256.60" /><polygon fill="#ff2b2b" points="75.00,259.20 76.00,259.20 76.00,256.60 75.00,256.60" /><polygon fill="#ff5208" points="76.00,259.20 77.00,259.20 77.00,256.60 76.00,256.60" /><polygon fill="#ebbc00" points="77.00,259.20 78.00,259.20 78.00,256.60 77.00,256.60" /><polygon fill="#67ff00" points="78.00,259.20 79.00,259.20 79.00,256.60 78.00,256.60" /><polygon fill="#00ff67" points="79.00,259.20 80.00,259.20 80.00,256.60 79.00,256.60" /><polygon fill="#00d0d9" points="80.00,259.20 81.00,259.20 81.00,256.60 80.00,256.60" /><polygon fill="#015dff" points="81.00,259.20 82.00,259.20 82.00,256.60 81.00,256.60" /><polygon fill="#7200ff" points="82.00,259.20 83.00,259.20 83.00,256.60 82.00,256.60" /><polygon fill="#f300b2" points="83.00,259.20 84.00,259.20 84.00,256.60 83.00,256.60" /><polygon fill="#ff1048" points="84.00,259.20 85.00,259.20 85.00,256.60 84.00,256.60" /><polygon fill="#ff2b2b" points="85.00,259.20 86.00,259.20 86.00,256.60 85.00,256.60" /><polygon fill="#ff1048" points="86.00,259.20 87.00,259.20 87.00,256.60 86.00,256.60" /><polygon fill="#f300b2" points="87.00,259.20 88.00,259.20 88.00,256.60 87.00,256.60" /><polygon fill="#7200ff" points="88.00,259.20 89.00,259.20 89.00,256.60 88.00,256.60" /><polygon fill="#015dff" points="89.00,259.20 90.00,259.20 90.00,256.60 89.00,256.60" /><polygon fill="#00d0d9" points="90.00,259.20 91.00,259.20 91.00,256.60 90.00,256.60" /><polygon fill="#00ff72" points="91.00,259.20 92.00,259.20 92.00,256.60 91.00,256.60" /><polygon fill="#3eff19" points="92.00,259.20 93.00,259.20 93.00,256.60 92.00,256.60" /><polygon fill="#7dff00" points="93.00,259.20 94.00,259.20 94.00,256.60 93.00,256.60" /><polygon fill="#92ff00" points="94.00,259.20 95.00,259.20 95.00,256.60 94.00,256.60" /><polygon fill="#7dff00" points="95.00,259.20 96.00,259.20 96.00,256.60 95.00,256.60" /><polygon fill="#3eff19" points="96.00,259.20 97.00,259.20 97.00,256.60 96.00,256.60" /><polygon fill="#00ff67" points="97.00,259.20 98.00,259.20 98.00,256.60 97.00,256.60" /><polygon fill="#00faa8" points="98.00,259.20 99.00,259.20 99.00,256.60 98.00,256.60" /><polygon fill="#00d9d0" points="99.00,259.20 100.00,259.20 100.00,256.60 99.00,256.60" /><polygon fill="#00d0d9" points="50.00,256.60 51.00,256.60 51.00,254.00 50.00,254.00" /><polygon fill="#00c6e2" points="51.00,256.60 52.00,256.60 52.00,254.00 51.00,254.00" /><polygon fill="#009dff" points="52.00,256.60 53.00,256.60 53.00,254.00 52.00,254.00" /><polygon fill="#015dff" points="53.00,256.60 54.00,256.60 54.00,254.00 53.00,254.00" /><polygon fill="#4810ff" points="54.00,256.60 55.00,256.60 55.00,254.00 54.00,254.00" /><polygon fill="#8800ff" points="55.00,256.60 56.00,256.60 56.00,254.00 55.00,254.00" /><polygon fill="#9d00ff" points="56.00,256.60 57.00,256.60 57.00,254.00 56.00,254.00" /><polygon fill="#8800ff" points="57.00,256.60 58.00,256.60 58.00,254.00 57.00,254.00" /><polygon fill="#4810ff" points="58.00,256.60 59.00,256.60 59.00,254.00 58.00,254.00" /><polygon fill="#0067ff" points="59.00,256.60 60.00,256.60 60.00,254.00 59.00,254.00" /><polygon fill="#00d0d9" points="60.00,256.60 61.00,256.60 61.00,254.00 60.00,254.00" /><polygon fill="#00ff7d" points="61.00,256.60 62.00,256.60 62.00,254.00 61.00,254.00" /><polygon fill="#10ff48" points="62.00,256.60 63.00,256.60 63.00,254.00 62.00,254.00" /><polygon fill="#10ff48" points="63.00,256.60 64.00,256.60 64.00,254.00 63.00,254.00" /><polygon fill="#00ff88" points="64.00,256.60 65.00,256.60 65.00,254.00 64.00,254.00" /><polygon fill="#00d0d9" points="65.00,256.60 66.00,256.60 66.00,254.00 65.00,254.00" /><polygon fill="#007dff" points="66.00,256.60 67.00,256.60 67.00,254.00 66.00,254.00" /><polygon fill="#193eff" points="67.00,256.60 68.00,256.60 68.00,254.00 67.00,254.00" /><polygon fill="#193eff" points="68.00,256.60 69.00,256.60 69.00,254.00 68.00,254.00" /><polygon fill="#0072ff" points="69.00,256.60 70.00,256.60 70.00,254.00 69.00,254.00" /><polygon fill="#00d0d9" points="70.00,256.60 71.00,256.60 71.00,254.00 70.00,254.00" /><polygon fill="#00ff67" points="71.00,256.60 72.00,256.60 72.00,254.00 71.00,254.00" /><polygon fill="#67ff00" points="72.00,256.60 73.00,256.60 73.00,254.00 72.00,254.00" /><polygon fill="#ebbc00" points="73.00,256.60 74.00,256.60 74.00,254.00 73.00,254.00" /><polygon fill="#ff5208" points="74.00,256.60 75.00,256.60 75.00,254.00 74.00,254.00" /><polygon fill="#ff2b2b" points="75.00,256.60 76.00,256.60 76.00,254.00 75.00,254.00" /><polygon fill="#ff5208" points="76.00,256.60 77.00,256.60 77.00,254.00 76.00,254.00" /><polygon fill="#ebbc00" points="77.00,256.60 78.00,256.60 78.00,254.00 77.00,254.00" /><polygon fill="#67ff00" points="78.00,256.60 79.00,256.60 79.00,254.00 78.00,254.00" /><polygon fill="#00ff67" points="79.00,256.60 80.00,256.60 80.00,254.00 79.00,254.00" /><polygon fill="#00d0d9" points="80.00,256.60 81.00,256.60 81.00,254.00 80.00,254.00" /><polygon fill="#0067ff" points="81.00,256.60 82.00,256.60 82.00,254.00 81.00,254.00" /><polygon fill="#4810ff" points="82.00,256.60 83.00,256.60 83.00,254.00 82.00,254.00" /><polygon fill="#8800ff" points="83.00,256.60 84.00,256.60 84.00,254.00 83.00,254.00" /><polygon fill="#9d00ff" points="84.00,256.60 85.00,256.60 85.00,254.00 84.00,254.00" /><polygon fill="#8800ff" points="85.00,256.60 86.00,256.60 86.00,254.00 85.00,254.00" /><polygon fill="#4810ff" points="86.00,256.60 87.00,256.60 87.00,254.00 86.00,254.00" /><polygon fill="#015dff" points="87.00,256.60 88.00,256.60 88.00,254.00 87.00,254.00" /><polygon fill="#009dff" points="88.00,256.60 89.00,256.60 89.00,254.00 88.00,254.00" /><polygon fill="#00c6e2" points="89.00,256.60 90.00,256.60 90.00,254.00 89.00,254.00" /><polygon fill="#00d0d9" points="90.00,256.60 91.00,256.60 91.00,254.00 90.00,254.00" /><polygon fill="#00c6e2" points="91.00,256.60 92.00,256.60 92.00,254.00 91.00,254.00" /><polygon fill="#009dff" points="92.00,256.60 93.00,256.60 93.00,254.00 92.00,254.00" /><polygon fill="#015dff" points="93.00,256.60 94.00,256.60 94.00,254.00 93.00,254.00" /><polygon fill="#4810ff" points="94.00,256.60 95.00,256.60 95.00,254.00 94.00,254.00" /><polygon fill="#8800ff" points="95.00,256.60 96.00,256.60 96.00,254.00 95.00,254.00" /><polygon fill="#9d00ff" points="96.00,256.60 97.00,256.60 97.00,254.00 96.00,254.00" /><polygon fill="#8800ff" points="97.00,256.60 98.00,256.60 98.00,254.00 97.00,254.00" /><polygon fill="#4810ff" points="98.00,256.60 99.00,256.60 99.00,254.00 98.00,254.00" /><polygon fill="#0067ff" points="99.00,256.60 100.00,256.60 100.00,254.00 99.00,254.00" /></g><g stroke="black"><line x1="50.00" x2="50.00" y1="280.00" y2="290.00" /><line x1="60.00" x2="60.00" y1="280.00" y2="290.00" /><line x1="70.00" x2="70.00" y1="280.00" y2="290.00" /><line x1="80.00" x2="80.00" y1="280.00" y2="290.00" /><line x1="90.00" x2="90.00" y1="280.00" y2="290.00" /><line x1="100.00" x2="100.00" y1="280.00" y2="290.00" /><line x1="110.00" x2="110.00" y1="280.00" y2="290.00" /><line x1="120.00" x2="120.00" y1="280.00" y2="290.00" /><line x1="130.00" x2="130.00" y1="280.00" y2="290.00" /><line x1="140.00" x2="140.00" y1="280.00" y2="290.00" /><line x1="150.00" x2="150.00" y1="280.00" y2="290.00" /><line x1="160.00" x2="160.00" y1="280.00" y2="290.00" /><line x1="170.00" x2="170.00" y1="280.00" y2="290.00" /><line x1="180.00" x2="180.00" y1="280.00" y2="290.00" /><line x1="190.00" x2="190.00" y1="280.00" y2="290.00" /><line x1="200.00" x2="200.00" y1="280.00" y2="290.00" /><line x1="210.00" x2="210.00" y1="280.00" y2="290.00" /><line x1="220.00" x2="220.00" y1="280.00" y2="290.00" /><line x1="230.00" x2="230.00" y1="280.00" y2="290.00" /><line x1="240.00" x2="240.00" y1="280.00" y2="290.00" /><line x1="250.00" x2="250.00" y1="280.00" y2="290.00" /><line x1="260.00" x2="260.00" y1="280.00" y2="290.00" /><line x1="270.00" x2="270.00" y1="280.00" y2="290.00" /><line x1="280.00" x2="280.00" y1="280.00" y2="290.00" /><line x1="290.00" x2="290.00" y1="280.00" y2="290.00" /><line x1="300.00" x2="300.00" y1="280.00" y2="290.00" /><line x1="310.00" x2="310.00" y1="280.00" y2="290.00" /><line x1="320.00" x2="320.00" y1="280.00" y2="290.00" /><line x1="330.00" x2="330.00" y1="280.00" y2="290.00" /><line x1="340.00" x2="340.00" y1="280.00" y2="290.00" /><line x1="350.00" x2="350.00" y1="280.00" y2="290.00" /><line x1="360.00" x2="360.00" y1="280.00" y2="290.00" /><line x1="370.00" x2="370.00" y1="280.00" y2="290.00" /><line x1="380.00" x2="380.00" y1="280.00" y2="290.00" /><line x1="390.00" x2="390.00" y1="280.00" y2="290.00" /><line x1="400.00" x2="400.00" y1="280.00" y2="290.00" /><line x1="410.00" x2="410.00" y1="280.00" y2="290.00" /><line x1="420.00" x2="420.00" y1="280.00" y2="290.00" /><line x1="430.00" x2="430.00" y1="280.00" y2="290.00" /><line x1="440.00" x2="440.00" y1="280.00" y2="290.00" /><line x1="450.00" x2="450.00" y1="280.00" y2="290.00" /><line x1="460.00" x2="460.00" y1="280.00" y2="290.00" /><line x1="470.00" x2="470.00" y1="280.00" y2="290.00" /><line x1="480.00" x2="480.00" y1="280.00" y2="290.00" /><line x1="490.00" x2="490.00" y1="280.00" y2="290.00" /><line x1="500.00" x2="500.00" y1="280.00" y2="290.00" /><line x1="510.00" x2="510.00" y1="280.00" y2="290.00" /><line x1="520.00" x2="520.00" y1="280.00" y2="290.00" /><line x1="530.00" x2="530.00" y1="280.00" y2="290.00" /><line x1="540.00" x2="540.00" y1="280.00" y2="290.00" /><line x1="550.00" x2="550.00" y1="280.00" y2="290.00" /><line x1="55.00" x2="55.00" y1="280.00" y2="285.00" /><line x1="65.00" x2="65.00" y1="280.00" y2="285.00" /><line x1="75.00" x2="75.00" y1="280.00" y2="285.00" /><line x1="85.00" x2="85.00" y1="280.00" y2="285.00" /><line x1="95.00" x2="95.00" y1="280.00" y2="285.00" /><line x1="105.00" x2="105.00" y1="280.00" y2="285.00" /><line x1="115.00" x2="115.00" y1="280.00" y2="285.00" /><line x1="125.00" x2="125.00" y1="280.00" y2="285.00" /><line x1="135.00" x2="135.00" y1="280.00" y2="285.00" /><line x1="145.00" x2="145.00" y1="280.00" y2="285.00" /><line x1="155.00" x2="155.00" y1="280.00" y2="285.00" /><line x1="165.00" x2="165.00" y1="280.00" y2="285.00" /><line x1="175.00" x2="175.00" y1="280.00" y2="285.00" /><line x1="185.00" x2="185.00" y1="280.00" y2="285.00" /><line x1="195.00" x2="195.00" y1="280.00" y2="285.00" /><line x1="205.00" x2="205.00" y1="280.00" y2="285.00" /><line x1="215.00" x2="215.00" y1="280.00" y2="285.00" /><line x1="225.00" x2="225.00" y1="280.00" y2="285.00" /><line x1="235.00" x2="235.00" y1="280.00" y2="285.00" /><line x1="245.00" x2="245.00" y1="280.00" y2="285.00" /><line x1="255.00" x2="255.00" y1="280.00" y2="285.00" /><line x1="265.00" x2="265.00" y1="280.00" y2="285.00" /><line x1="275.00" x2="275.00" y1="280.00" y2="285.00" /><line x1="285.00" x2="285.00" y1="280.00" y2="285.00" /><line x1="295.00" x2="295.00" y1="280.00" y2="285.00" /><line x1="305.00" x2="305.00" y1="280.00" y2="285.00" /><line x1="315.00" x2="315.00" y1="280.00" y2="285.00" /><line x1="325.00" x2="325.00" y1="280.00" y2="285.00" /><line x1="335.00" x2="335.00" y1="280.00" y2="285.00" /><line x1="345.00" x2="345.00" y1="280.00" y2="285.00" /><line x1="355.00" x2="355.00" y1="280.00" y2="285.00" /><line x1="365.00" x2="365.00" y1="280.00" y2="285.00" /><line x1="375.00" x2="375.00" y1="280.00" y2="285.00" /><line x1="385.00" x2="385.00" y1="280.00" y2="285.00" /><line x1="395.00" x2="395.00" y1="280.00" y2="285.00" /><line x1="405.00" x2="405.00" y1="280.00" y2="285.00" /><line x1="415.00" x2="415.00" y1="280.00" y2="285.00" /><line x1="425.00" x2="425.00" y1="280.00" y2="285.00" /><line x1="435.00" x2="435.00" y1="280.00" y2="285.00" /><line x1="445.00" x2="445.00" y1="280.00" y2="285.00" /><line x1="455.00" x2="455.00" y1="280.00" y2="285.00" /><line x1="465.00" x2="465.00" y1="280.00" y2="285.00" /><line x1="475.00" x2="475.00" y1="280.00" y2="285.00" /><line x1="485.00" x2="485.00" y1="280.00" y2="285.00" /><line x1="495.00" x2="495.00" y1="280.00" y2="285.00" /><line x1="505.00" x2="505.00" y1="280.00" y2="285.00" /><line x1="515.00" x2="515.00" y1="280.00" y2="285.00" /><line x1="525.00" x2="525.00" y1="280.00" y2="285.00" /><line x1="535.00" x2="535.00" y1="280.00" y2="285.00" /><line x1="545.00" x2="545.00" y1="280.00" y2="285.00" /><g fill="black" font-family="Arial, sans-serif" font-size="10" stroke="none" text-anchor="middle"><text x="50.00" y="300.00">0.00</text><text x="60.00" y="300.00">10.00</text><text x="70.00" y="300.00">20.00</text><text x="80.00" y="300.00">30.00</text><text x="90.00" y="300.00">40.00</text><text x="100.00" y="300.00">50.00</text><text x="110.00" y="300.00">60.00</text><text x="120.00" y="300.00">70.00</text><text x="130.00" y="300.00">80.00</text><text x="140.00" y="300.00">90.00</text><text x="150.00" y="300.00">100.00</text><text x="160.00" y="300.00">110.00</text><text x="170.00" y="300.00">120.00</text><text x="180.00" y="300.00">130.00</text><text x="190.00" y="300.00">140.00</text><text x="200.00" y="300.00">150.00</text><text x="210.00" y="300.00">160.00</text><text x="220.00" y="300.00">170.00</text><text x="230.00" y="300.00">180.00</text><text x="240.00" y="300.00">190.00</text><text x="250.00" y="300.00">200.00</text><text x="260.00" y="300.00">210.00</text><text x="270.00" y="300.00">220.00</text><text x="280.00" y="300.00">230.00</text><text x="290.00" y="300.00">240.00</text><text x="300.00" y="300.00">250.00</text><text x="310.00" y="300.00">260.00</text><text x="320.00" y="300.00">270.00</text><text x="330.00" y="300.00">280.00</text><text x="340.00" y="300.00">290.00</text><text x="350.00" y="300.00">300.00</text><text x="360.00" y="300.00">310.00</text><text x="370.00" y="300.00">320.00</text><text x="380.00" y="300.00">330.00</text><text x="390.00" y="300.00">340.00</text><text x="400.00" y="300.00">350.00</text><text x="410.00" y="300.00">360.00</text><text x="420.00" y="300.00">370.00</text><text x="430.00" y="300.00">380.00</text><text x="440.00" y="300.00">390.00</text><text x="450.00" y="300.00">400.00</text><text x="460.00" y="300.00">410.00</text><text x="470.00" y="300.00">420.00</text><text x="480.00" y="300.00">430.00</text><text x="490.00" y="300.00">440.00</text><text x="500.00" y="300.00">450.00</text><text x="510.00" y="300.00">460.00</text><text x="520.00" y="300.00">470.00</text><text x="530.00" y="300.00">480.00</text><text x="540.00" y="300.00">490.00</text><text x="550.00" y="300.00">500.00</text></g><line x1="50.00" x2="550.00" y1="280.00" y2="280.00" /></g><g stroke="black"><line x1="50.00" x2="40.00" y1="280.00" y2="280.00" /><line x1="50.00" x2="40.00" y1="277.40" y2="277.40" /><line x1="50.00" x2="40.00" y1="274.80" y2="274.80" /><line x1="50.00" x2="40.00" y1="272.20" y2="272.20" /><line x1="50.00" x2="40.00" y1="269.60" y2="269.60" /><line x1="50.00" x2="40.00" y1="267.00" y2="267.00" /><line x1="50.00" x2="40.00" y1="264.40" y2="264.40" /><line x1="50.00" x2="40.00" y1="261.80" y2="261.80" /><line x1="50.00" x2="40.00" y1="259.20" y2="259.20" /><line x1="50.00" x2="40.00" y1="256.60" y2="256.60" /><line x1="50.00" x2="40.00" y1="254.00" y2="254.00" /><line x1="50.00" x2="40.00" y1="251.40" y2="251.40" /><line x1="50.00" x2="40.00" y1="248.80" y2="248.80" /><line x1="50.00" x2="40.00" y1="246.20" y2="246.20" /><line x1="50.00" x2="40.00" y1="243.60" y2="243.60" /><line x1="50.00" x2="40.00" y1="241.00" y2="241.00" /><line x1="50.00" x2="40.00" y1="238.40" y2="238.40" /><line x1="50.00" x2="40.00" y1="235.80" y2="235.80" /><line x1="50.00" x2="40.00" y1="233.20" y2="233.20" /><line x1="50.00" x2="40.00" y1="230.60" y2="230.60" /><line x1="50.00" x2="40.00" y1="228.00" y2="228.00" /><line x1="50.00" x2="40.00" y1="225.40" y2="225.40" /><line x1="50.00" x2="40.00" y1="222.80" y2="222.80" /><line x1="50.00" x2="40.00" y1="220.20" y2="220.20" /><line x1="50.00" x2="40.00" y1="217.60" y2="217.60" /><line x1="50.00" x2="40.00" y1="215.00" y2="215.00" /><line x1="50.00" x2="40.00" y1="212.40" y2="212.40" /><line x1="50.00" x2="40.00" y1="209.80" y2="209.80" /><line x1="50.00" x2="40.00" y1="207.20" y2="207.20" /><line x1="50.00" x2="40.00" y1="204.60" y2="204.60" /><line x1="50.00" x2="40.00" y1="202.00" y2="202.00" /><line x1="50.00" x2="40.00" y1="199.40" y2="199.40" /><line x1="50.00" x2="40.00" y1="196.80" y2="196.80" /><line x1="50.00" x2="40.00" y1="194.20" y2="194.20" /><line x1="50.00" x2="40.00" y1="191.60" y2="191.60" /><line x1="50.00" x2="40.00" y1="189.00" y2="189.00" /><line x1="50.00" x2="40.00" y1="186.40" y2="186.40" /><line x1="50.00" x2="40.00" y1="183.80" y2="183.80" /><line x1="50.00" x2="40.00" y1="181.20" y2="181.20" /><line x1="50.00" x2="40.00" y1="178.60" y2="178.60" /><line x1="50.00" x2="40.00" y1="176.00" y2="176.00" /><line x1="50.00" x2="40.00" y1="173.40" y2="173.40" /><line x1="50.00" x2="40.00" y1="170.80" y2="170.80" /><line x1="50.00" x2="40.00" y1="168.20" y2="168.20" /><line x1="50.00" x2="40.00" y1="165.60" y2="165.60" /><line x1="50.00" x2="40.00" y1="163.00" y2="163.00" /><line x1="50.00" x2="40.00" y1="160.40" y2="160.40" /><line x1="50.00" x2="40.00" y1="157.80" y2="157.80" /><line x1="50.00" x2="40.00" y1="155.20" y2="155.20" /><line x1="50.00" x2="40.00" y1="152.60" y2="152.60" /><line x1="50.00" x2="40.00" y1="150.00" y2="150.00" /><line x1="50.00" x2="40.00" y1="147.40" y2="147.40" /><line x1="50.00" x2="40.00" y1="144.80" y2="144.80" /><line x1="50.00" x2="40.00" y1="142.20" y2="142.20" /><line x1="50.00" x2="40.00" y1="139.60" y2="139.60" /><line x1="50.00" x2="40.00" y1="137.00" y2="137.00" /><line x1="50.00" x2="40.00" y1="134.40" y2="134.40" /><line x1="50.00" x2="40.00" y1="131.80" y2="131.80" /><line x1="50.00" x2="40.00" y1="129.20" y2="129.20" /><line x1="50.00" x2="40.00" y1="126.60" y2="126.60" /><line x1="50.00" x2="40.00" y1="124.00" y2="124.00" /><line x1="50.00" x2="40.00" y1="121.40" y2="121.40" /><line x1="50.00" x2="40.00" y1="118.80" y2="118.80" /><line x1="50.00" x2="40.00" y1="116.20" y2="116.20" /><line x1="50.00" x2="40.00" y1="113.60" y2="113.60" /><line x1="50.00" x2="40.00" y1="111.00" y2="111.00" /><line x1="50.00" x2="40.00" y1="108.40" y2="108.40" /><line x1="50.00" x2="40.00" y1="105.80" y2="105.80" /><line x1="50.00" x2="40.00" y1="103.20" y2="103.20" /><line x1="50.00" x2="40.00" y1="100.60" y2="100.60" /><line x1="50.00" x2="40.00" y1="98.00" y2="98.00" /><line x1="50.00" x2="40.00" y1="95.40" y2="95.40" /><line x1="50.00" x2="40.00" y1="92.80" y2="92.80" /><line x1="50.00" x2="40.00" y1="90.20" y2="90.20" /><line x1="50.00" x2="40.00" y1="87.60" y2="87.60" /><line x1="50.00" x2="40.00" y1="85.00" y2="85.00" /><line x1="50.00" x2="40.00" y1="82.40" y2="82.40" /><line x1="50.00" x2="40.00" y1="79.80" y2="79.80" /><line x1="50.00" x2="40.00" y1="77.20" y2="77.20" /><line x1="50.00" x2="40.00" y1="74.60" y2="74.60" /><line x1="50.00" x2="40.00" y1="72.00" y2="72.00" /><line x1="50.00" x2="40.00" y1="69.40" y2="69.40" /><line x1="50.00" x2="40.00" y1="66.80" y2="66.80" /><line x1="50.00" x2="40.00" y1="64.20" y2="64.20" /><line x1="50.00" x2="40.00" y1="61.60" y2="61.60" /><line x1="50.00" x2="40.00" y1="59.00" y2="59.00" /><line x1="50.00" x2="40.00" y1="56.40" y2="56.40" /><line x1="50.00" x2="40.00" y1="53.80" y2="53.80" /><line x1="50.00" x2="40.00" y1="51.20" y2="51.20" /><line x1="50.00" x2="40.00" y1="48.60" y2="48.60" /><line x1="50.00" x2="40.00" y1="46.00" y2="46.00" /><line x1="50.00" x2="40.00" y1="43.40" y2="43.40" /><line x1="50.00" x2="40.00" y1="40.80" y2="40.80" /><line x1="50.00" x2="40.00" y1="38.20" y2="38.20" /><line x1="50.00" x2="40.00" y1="35.60" y2="35.60" /><line x1="50.00" x2="40.00" y1="33.00" y2="33.00" /><line x1="50.00" x2="40.00" y1="30.40" y2="30.40" /><line x1="50.00" x2="40.00" y1="27.80" y2="27.80" /><line x1="50.00" x2="40.00" y1="25.20" y2="25.20" /><line x1="50.00" x2="40.00" y1="22.60" y2="22.60" /><line x1="50.00" x2="40.00" y1="20.00" y2="20.00" /><g fill="black" font-family="Arial, sans-serif" font-size="10" stroke="none" text-anchor="end"><text x="35.00" y="280.00">0.00</text><text x="35.00" y="277.40">1.00</text><text x="35.00" y="274.80">2.00</text><text x="35.00" y="272.20">3.00</text><text x="35.00" y="269.60">4.00</text><text x="35.00" y="267.00">5.00</text><text x="35.00" y="264.40">6.00</text><text x="35.00" y="261.80">7.00</text><text x="35.00" y="259.20">8.00</text><text x="35.00" y="256.60">9.00</text><text x="35.00" y="254.00">10.00</text><text x="35.00" y="251.40">11.00</text><text x="35.00" y="248.80">12.00</text><text x="35.00" y="246.20">13.00</text><text x="35.00" y="243.60">14.00</text><text x="35.00" y="241.00">15.00</text><text x="35.00" y="238.40">16.00</text><text x="35.00" y="235.80">17.00</text><text x="35.00" y="233.20">18.00</text><text x="35.00" y="230.60">19.00</text><text x="35.00" y="228.00">20.00</text><text x="35.00" y="225.40">21.00</text><text x="35.00" y="222.80">22.00</text><text x="35.00" y="220.20">23.00</text><text x="35.00" y="217.60">24.00</text><text x="35.00" y="215.00">25.00</text><text x="35.00" y="212.40">26.00</text><text x="35.00" y="209.80">27.00</text><text x="35.00" y="207.20">28.00</text><text x="35.00" y="204.60">29.00</text><text x="35.00" y="202.00">30.00</text><text x="35.00" y="199.40">31.00</text><text x="35.00" y="196.80">32.00</text><text x="35.00" y="194.20">33.00</text><text x="35.00" y="191.60">34.00</text><text x="35.00" y="189.00">35.00</text><text x="35.00" y="186.40">36.00</text><text x="35.00" y="183.80">37.00</text><text x="35.00" y="181.20">38.00</text><text x="35.00" y="178.60">39.00</text><text x="35.00" y="176.00">40.00</text><text x="35.00" y="173.40">41.00</text><text x="35.00" y="170.80">42.00</text><text x="35.00" y="168.20">43.00</text><text x="35.00" y="165.60">44.00</text><text x="35.00" y="163.00">45.00</text><text x="35.00" y="160.40">46.00</text><text x="35.00" y="157.80">47.00</text><text x="35.00" y="155.20">48.00</text><text x="35.00" y="152.60">49.00</text><text x="35.00" y="150.00">50.00</text><text x="35.00" y="147.40">51.00</text><text x="35.00" y="144.80">52.00</text><text x="35.00" y="142.20">53.00</text><text x="35.00" y="139.60">54.00</text><text x="35.00" y="137.00">55.00</text><text x="35.00" y="134.40">56.00</text><text x="35.00" y="131.80">57.00</text><text x="35.00" y="129.20">58.00</text><text x="35.00" y="126.60">59.00</text><text x="35.00" y="124.00">60.00</text><text x="35.00" y="121.40">61.00</text><text x="35.00" y="118.80">62.00</text><text x="35.00" y="116.20">63.00</text><text x="35.00" y="113.60">64.00</text><text x="35.00" y="111.00">65.00</text><text x="35.00" y="108.40">66.00</text><text x="35.00" y="105.80">67.00</text><text x="35.00" y="103.20">68.00</text><text x="35.00" y="100.60">69.00</text><text x="35.00" y="98.00">70.00</text><text x="35.00" y="95.40">71.00</text><text x="35.00" y="92.80">72.00</text><text x="35.00" y="90.20">73.00</text><text x="35.00" y="87.60">74.00</text><text x="35.00" y="85.00">75.00</text><text x="35.00" y="82.40">76.00</text><text x="35.00" y="79.80">77.00</text><text x="35.00" y="77.20">78.00</text><text x="35.00" y="74.60">79.00</text><text x="35.00" y="72.00">80.00</text><text x="35.00" y="69.40">81.00</text><text x="35.00" y="66.80">82.00</text><text x="35.00" y="64.20">83.00</text><text x="35.00" y="61.60">84.00</text><text x="35.00" y="59.00">85.00</text><text x="35.00" y="56.40">86.00</text><text x="35.00" y="53.80">87.00</text><text x="35.00" y="51.20">88.00</text><text x="35.00" y="48.60">89.00</text><text x="35.00" y="46.00">90.00</text><text x="35.00" y="43.40">91.00</text><text x="35.00" y="40.80">92.00</text><text x="35.00" y="38.20">93.00</text><text x="35.00" y="35.60">94.00</text><text x="35.00" y="33.00">95.00</text><text x="35.00" y="30.40">96.00</text><text x="35.00" y="27.80">97.00</text><text x="35.00" y="25.20">98.00</text><text x="35.00" y="22.60">99.00</text><text x="35.00" y="20.00">100.00</text></g><line x1="50.00" x2="50.00" y1="280.00" y2="20.00" /></g></g></svg>