<?xml version="1.0"?>
<svg height="300" version="1.1" width="600" xmlns:xlink="http://www.w3.org/1999/xlink" xmlns="http://www.w3.org/2000/svg"><g><g><polygon fill="#e90100" points="50.00,0.00 70.83,0.00 70.83,17.50 50.00,17.50" /><polygon fill="#feeb00" points="70.83,0.00 91.67,0.00 91.67,17.50 70.83,17.50" /><polygon fill="#fa8e00" points="91.67,0.00 112.50,0.00 112.50,17.50 91.67,17.50" /><polygon fill="#fdd300" points="112.50,0.00 133.33,0.00 133.33,17.50 112.50,17.50" /><polygon fill="#fcb100" points="133.33,0.00 154.17,0.00 154.17,17.50 133.33,17.50" /><polygon fill="#fedc00" points="154.17,0.00 175.00,0.00 175.00,17.50 154.17,17.50" /><polygon fill="#f87500" points="175.00,0.00 195.83,0.00 195.83,17.50 175.00,17.50" /><polygon fill="#fa8e00" points="195.83,0.00 216.67,0.00 216.67,17.50 195.83,17.50" /><polygon fill="#f12600" points="216.67,0.00 237.50,0.00 237.50,17.50 216.67,17.50" /><polygon fill="#f98200" points="237.50,0.00 258.33,0.00 258.33,17.50 237.50,17.50" /><polygon fill="#f76900" points="258.33,0.00 279.17,0.00 279.17,17.50 258.33,17.50" /><polygon fill="#fdc900" points="279.17,0.00 300.00,0.00 300.00,17.50 279.17,17.50" /><polygon fill="#ea0300" points="300.00,0.00 320.83,0.00 320.83,17.50 300.00,17.50" /><polygon fill="#fffe00" points="320.83,0.00 341.67,0.00 341.67,17.50 320.83,17.50" /><polygon fill="#fcbc00" points="341.67,0.00 362.50,0.00 362.50,17.50 341.67,17.50" /><polygon fill="#f87500" points="362.50,0.00 383.33,0.00 383.33,17.50 362.50,17.50" /><polygon fill="#f65e00" points="383.33,0.00 404.17,0.00 404.17,17.50 383.33,17.50" /><polygon fill="#fffd00" points="404.17,0.00 425.00,0.00 425.00,17.50 404.17,17.50" /><polygon fill="#f65e00" points="425.00,0.00 445.83,0.00 445.83,17.50 425.00,17.50" /><polygon fill="#fffe00" points="445.83,0.00 466.67,0.00 466.67,17.50 445.83,17.50" /><polygon fill="#e70000" points="466.67,0.00 487.50,0.00 487.50,17.50 466.67,17.50" /><polygon fill="#fdc900" points="487.50,0.00 508.33,0.00 508.33,17.50 487.50,17.50" /><polygon fill="#fdc900" points="508.33,0.00 529.17,0.00 529.17,17.50 508.33,17.50" /><polygon fill="#fffe00" points="529.17,0.00 550.00,0.00 550.00,17.50 529.17,17.50" /><polygon fill="#e70000" points="50.00,17.50 70.83,17.50 70.83,35.00 50.00,35.00" /><polygon fill="#fee400" points="70.83,17.50 91.67,17.50 91.67,35.00 70.83,35.00" /><polygon fill="#feeb00" points="91.67,17.50 112.50,17.50 112.50,35.00 91.67,35.00" /><polygon fill="#fff600" points="112.50,17.50 133.33,17.50 133.33,35.00 112.50,35.00" /><polygon fill="#fa9a00" points="133.33,17.50 154.17,17.50 154.17,35.00 133.33,35.00" /><polygon fill="#ffff00" points="154.17,17.50 175.00,17.50 175.00,35.00 154.17,35.00" /><polygon fill="#f12600" points="175.00,17.50 195.83,17.50 195.83,35.00 175.00,35.00" /><polygon fill="#ffff00" points="195.83,17.50 216.67,17.50 216.67,35.00 195.83,35.00" /><polygon fill="#fdd300" points="216.67,17.50 237.50,17.50 237.50,35.00 216.67,35.00" /><polygon fill="#fdc900" points="237.50,17.50 258.33,17.50 258.33,35.00 237.50,35.00" /><polygon fill="#fffe00" points="258.33,17.50 279.17,17.50 279.17,35.00 258.33,35.00" /><polygon fill="#fdc900" points="279.17,17.50 300.00,17.50 300.00,35.00 279.17,35.00" /><polygon fill="#ea0300" points="300.00,17.50 320.83,17.50 320.83,35.00 300.00,35.00" /><polygon fill="#ffff00" points="320.83,17.50 341.67,17.50 341.67,35.00 320.83,35.00" /><polygon fill="#fffa00" points="341.67,17.50 362.50,17.50 362.50,35.00 341.67,35.00" /><polygon fill="#fedc00" points="362.50,17.50 383.33,17.50 383.33,35.00 362.50,35.00" /><polygon fill="#f12600" points="383.33,17.50 404.17,17.50 404.17,35.00 383.33,35.00" /><polygon fill="#ffff00" points="404.17,17.50 425.00,17.50 425.00,35.00 404.17,35.00" /><polygon fill="#fa8e00" points="425.00,17.50 445.83,17.50 445.83,35.00 425.00,35.00" /><polygon fill="#ffff00" points="445.83,17.50 466.67,17.50 466.67,35.00 445.83,35.00" /><polygon fill="#fff600" points="466.67,17.50 487.50,17.50 487.50,35.00 466.67,35.00" /><polygon fill="#f98200" points="487.50,17.50 508.33,17.50 508.33,35.00 487.50,35.00" /><polygon fill="#ffff00" points="508.33,17.50 529.17,17.50 529.17,35.00 508.33,35.00" /><polygon fill="#ffff00" points="529.17,17.50 550.00,17.50 550.00,35.00 529.17,35.00" /><polygon fill="#f33900" points="50.00,35.00 70.83,35.00 70.83,52.50 50.00,52.50" /><polygon fill="#feeb00" points="70.83,35.00 91.67,35.00 91.67,52.50 70.83,52.50" /><polygon fill="#fcbc00" points="91.67,35.00 112.50,35.00 112.50,52.50 91.67,52.50" /><polygon fill="#fef100" points="112.50,35.00 133.33,35.00 133.33,52.50 112.50,52.50" /><polygon fill="#fffd00" points="133.33,35.00 154.17,35.00 154.17,52.50 133.33,52.50" /><polygon fill="#ffff00" points="154.17,35.00 175.00,35.00 175.00,52.50 154.17,52.50" /><polygon fill="#f12600" points="175.00,35.00 195.83,35.00 195.83,52.50 175.00,52.50" /><polygon fill="#fdd300" points="195.83,35.00 216.67,35.00 216.67,52.50 195.83,52.50" /><polygon fill="#fedc00" points="216.67,35.00 237.50,35.00 237.50,52.50 216.67,52.50" /><polygon fill="#fffd00" points="237.50,35.00 258.33,35.00 258.33,52.50 237.50,52.50" /><polygon fill="#ffff00" points="258.33,35.00 279.17,35.00 279.17,52.50 258.33,52.50" /><polygon fill="#ffff00" points="279.17,35.00 300.00,35.00 300.00,52.50 279.17,52.50" /><polygon fill="#f22f00" points="300.00,35.00 320.83,35.00 320.83,52.50 300.00,52.50" /><polygon fill="#ffff00" points="320.83,35.00 341.67,35.00 341.67,52.50 320.83,52.50" /><polygon fill="#ffff00" points="341.67,35.00 362.50,35.00 362.50,52.50 341.67,52.50" /><polygon fill="#fa9a00" points="362.50,35.00 383.33,35.00 383.33,52.50 362.50,52.50" /><polygon fill="#fffa00" points="383.33,35.00 404.17,35.00 404.17,52.50 383.33,52.50" /><polygon fill="#fee400" points="404.17,35.00 425.00,35.00 425.00,52.50 404.17,52.50" /><polygon fill="#fee400" points="425.00,35.00 445.83,35.00 445.83,52.50 425.00,52.50" /><polygon fill="#ffff00" points="445.83,35.00 466.67,35.00 466.67,52.50 445.83,52.50" /><polygon fill="#fef100" points="466.67,35.00 487.50,35.00 487.50,52.50 466.67,52.50" /><polygon fill="#ffff00" points="487.50,35.00 508.33,35.00 508.33,52.50 487.50,52.50" /><polygon fill="#fa9a00" points="508.33,35.00 529.17,35.00 529.17,52.50 508.33,52.50" /><polygon fill="#ffff00" points="529.17,35.00 550.00,35.00 550.00,52.50 529.17,52.50" /><polygon fill="#fa8e00" points="50.00,52.50 70.83,52.50 70.83,70.00 50.00,70.00" /><polygon fill="#ffff00" points="70.83,52.50 91.67,52.50 91.67,70.00 70.83,70.00" /><polygon fill="#ffff00" points="91.67,52.50 112.50,52.50 112.50,70.00 91.67,70.00" /><polygon fill="#fffa00" points="112.50,52.50 133.33,52.50 133.33,70.00 112.50,70.00" /><polygon fill="#fffe00" points="133.33,52.50 154.17,52.50 154.17,70.00 133.33,70.00" /><polygon fill="#fee400" points="154.17,52.50 175.00,52.50 175.00,70.00 154.17,70.00" /><polygon fill="#fffe00" points="175.00,52.50 195.83,52.50 195.83,70.00 175.00,70.00" /><polygon fill="#ffff00" points="195.83,52.50 216.67,52.50 216.67,70.00 195.83,70.00" /><polygon fill="#fef100" points="216.67,52.50 237.50,52.50 237.50,70.00 216.67,70.00" /><polygon fill="#fff600" points="237.50,52.50 258.33,52.50 258.33,70.00 237.50,70.00" /><polygon fill="#ffff00" points="258.33,52.50 279.17,52.50 279.17,70.00 258.33,70.00" /><polygon fill="#ffff00" points="279.17,52.50 300.00,52.50 300.00,70.00 279.17,70.00" /><polygon fill="#f12600" points="300.00,52.50 320.83,52.50 320.83,70.00 300.00,70.00" /><polygon fill="#fef100" points="320.83,52.50 341.67,52.50 341.67,70.00 320.83,70.00" /><polygon fill="#ffff00" points="341.67,52.50 362.50,52.50 362.50,70.00 341.67,70.00" /><polygon fill="#ffff00" points="362.50,52.50 383.33,52.50 383.33,70.00 362.50,70.00" /><polygon fill="#fedc00" points="383.33,52.50 404.17,52.50 404.17,70.00 383.33,70.00" /><polygon fill="#ffff00" points="404.17,52.50 425.00,52.50 425.00,70.00 404.17,70.00" /><polygon fill="#fedc00" points="425.00,52.50 445.83,52.50 445.83,70.00 425.00,70.00" /><polygon fill="#fff600" points="445.83,52.50 466.67,52.50 466.67,70.00 445.83,70.00" /><polygon fill="#ffff00" points="466.67,52.50 487.50,52.50 487.50,70.00 466.67,70.00" /><polygon fill="#ffff00" points="487.50,52.50 508.33,52.50 508.33,70.00 487.50,70.00" /><polygon fill="#ffff00" points="508.33,52.50 529.17,52.50 529.17,70.00 508.33,70.00" /><polygon fill="#fffe00" points="529.17,52.50 550.00,52.50 550.00,70.00 529.17,70.00" /><polygon fill="#fa8e00" points="50.00,70.00 70.83,70.00 70.83,87.50 50.00,87.50" /><polygon fill="#ffff00" points="70.83,70.00 91.67,70.00 91.67,87.50 70.83,87.50" /><polygon fill="#fedc00" points="91.67,70.00 112.50,70.00 112.50,87.50 91.67,87.50" /><polygon fill="#f98200" points="112.50,70.00 133.33,70.00 133.33,87.50 112.50,87.50" /><polygon fill="#fef100" points="133.33,70.00 154.17,70.00 154.17,87.50 133.33,87.50" /><polygon fill="#ffff00" points="154.17,70.00 175.00,70.00 175.00,87.50 154.17,87.50" /><polygon fill="#fffa00" points="175.00,70.00 195.83,70.00 195.83,87.50 175.00,87.50" /><polygon fill="#ffff00" points="195.83,70.00 216.67,70.00 216.67,87.50 195.83,87.50" /><polygon fill="#fef100" points="216.67,70.00 237.50,70.00 237.50,87.50 216.67,87.50" /><polygon fill="#fffe00" points="237.50,70.00 258.33,70.00 258.33,87.50 237.50,87.50" /><polygon fill="#ffff00" points="258.33,70.00 279.17,70.00 279.17,87.50 258.33,87.50" /><polygon fill="#ffff00" points="279.17,70.00 300.00,70.00 300.00,87.50 279.17,87.50" /><polygon fill="#fcbc00" points="300.00,70.00 320.83,70.00 320.83,87.50 300.00,87.50" /><polygon fill="#ffff00" points="320.83,70.00 341.67,70.00 341.67,87.50 320.83,87.50" /><polygon fill="#f98200" points="341.67,70.00 362.50,70.00 362.50,87.50 341.67,87.50" /><polygon fill="#ffff00" points="362.50,70.00 383.33,70.00 383.33,87.50 362.50,87.50" /><polygon fill="#fee400" points="383.33,70.00 404.17,70.00 404.17,87.50 383.33,87.50" /><polygon fill="#ffff00" points="404.17,70.00 425.00,70.00 425.00,87.50 404.17,87.50" /><polygon fill="#ffff00" points="425.00,70.00 445.83,70.00 445.83,87.50 425.00,87.50" /><polygon fill="#ffff00" points="445.83,70.00 466.67,70.00 466.67,87.50 445.83,87.50" /><polygon fill="#ffff00" points="466.67,70.00 487.50,70.00 487.50,87.50 466.67,87.50" /><polygon fill="#ffff00" points="487.50,70.00 508.33,70.00 508.33,87.50 487.50,87.50" /><polygon fill="#ffff00" points="508.33,70.00 529.17,70.00 529.17,87.50 508.33,87.50" /><polygon fill="#fffd00" points="529.17,70.00 550.00,70.00 550.00,87.50 529.17,87.50" /><polygon fill="#fdd300" points="50.00,87.50 70.83,87.50 70.83,105.00 50.00,105.00" /><polygon fill="#fffd00" points="70.83,87.50 91.67,87.50 91.67,105.00 70.83,105.00" /><polygon fill="#ffff00" points="91.67,87.50 112.50,87.50 112.50,105.00 91.67,105.00" /><polygon fill="#ffff00" points="112.50,87.50 133.33,87.50 133.33,105.00 112.50,105.00" /><polygon fill="#ffff00" points="133.33,87.50 154.17,87.50 154.17,105.00 133.33,105.00" /><polygon fill="#ffff00" points="154.17,87.50 175.00,87.50 175.00,105.00 154.17,105.00" /><polygon fill="#fff600" points="175.00,87.50 195.83,87.50 195.83,105.00 175.00,105.00" /><polygon fill="#ffff00" points="195.83,87.50 216.67,87.50 216.67,105.00 195.83,105.00" /><polygon fill="#fff600" points="216.67,87.50 237.50,87.50 237.50,105.00 216.67,105.00" /><polygon fill="#ffff00" points="237.50,87.50 258.33,87.50 258.33,105.00 237.50,105.00" /><polygon fill="#fee400" points="258.33,87.50 279.17,87.50 279.17,105.00 258.33,105.00" /><polygon fill="#ffff00" points="279.17,87.50 300.00,87.50 300.00,105.00 279.17,105.00" /><polygon fill="#fa9a00" points="300.00,87.50 320.83,87.50 320.83,105.00 300.00,105.00" /><polygon fill="#fffe00" points="320.83,87.50 341.67,87.50 341.67,105.00 320.83,105.00" /><polygon fill="#ffff00" points="341.67,87.50 362.50,87.50 362.50,105.00 341.67,105.00" /><polygon fill="#ffff00" points="362.50,87.50 383.33,87.50 383.33,105.00 362.50,105.00" /><polygon fill="#fffa00" points="383.33,87.50 404.17,87.50 404.17,105.00 383.33,105.00" /><polygon fill="#ffff00" points="404.17,87.50 425.00,87.50 425.00,105.00 404.17,105.00" /><polygon fill="#ffff00" points="425.00,87.50 445.83,87.50 445.83,105.00 425.00,105.00" /><polygon fill="#ffff00" points="445.83,87.50 466.67,87.50 466.67,105.00 445.83,105.00" /><polygon fill="#fdd300" points="466.67,87.50 487.50,87.50 487.50,105.00 466.67,105.00" /><polygon fill="#ffff00" points="487.50,87.50 508.33,87.50 508.33,105.00 487.50,105.00" /><polygon fill="#ffff00" points="508.33,87.50 529.17,87.50 529.17,105.00 508.33,105.00" /><polygon fill="#fff600" points="529.17,87.50 550.00,87.50 550.00,105.00 529.17,105.00" /><polygon fill="#fa8e00" points="50.00,105.00 70.83,105.00 70.83,122.50 50.00,122.50" /><polygon fill="#ffff00" points="70.83,105.00 91.67,105.00 91.67,122.50 70.83,122.50" /><polygon fill="#ffff00" points="91.67,105.00 112.50,105.00 112.50,122.50 91.67,122.50" /><polygon fill="#fffe00" points="112.50,105.00 133.33,105.00 133.33,122.50 112.50,122.50" /><polygon fill="#ffff00" points="133.33,105.00 154.17,105.00 154.17,122.50 133.33,122.50" /><polygon fill="#ffff00" points="154.17,105.00 175.00,105.00 175.00,122.50 154.17,122.50" /><polygon fill="#fffe00" points="175.00,105.00 195.83,105.00 195.83,122.50 175.00,122.50" /><polygon fill="#ffff00" points="195.83,105.00 216.67,105.00 216.67,122.50 195.83,122.50" /><polygon fill="#ffff00" points="216.67,105.00 237.50,105.00 237.50,122.50 216.67,122.50" /><polygon fill="#fffe00" points="237.50,105.00 258.33,105.00 258.33,122.50 237.50,122.50" /><polygon fill="#fef100" points="258.33,105.00 279.17,105.00 279.17,122.50 258.33,122.50" /><polygon fill="#ffff00" points="279.17,105.00 300.00,105.00 300.00,122.50 279.17,122.50" /><polygon fill="#fef100" points="300.00,105.00 320.83,105.00 320.83,122.50 300.00,122.50" /><polygon fill="#ffff00" points="320.83,105.00 341.67,105.00 341.67,122.50 320.83,122.50" /><polygon fill="#ffff00" points="341.67,105.00 362.50,105.00 362.50,122.50 341.67,122.50" /><polygon fill="#ffff00" points="362.50,105.00 383.33,105.00 383.33,122.50 362.50,122.50" /><polygon fill="#fedc00" points="383.33,105.00 404.17,105.00 404.17,122.50 383.33,122.50" /><polygon fill="#ffff00" points="404.17,105.00 425.00,105.00 425.00,122.50 404.17,122.50" /><polygon fill="#fffe00" points="425.00,105.00 445.83,105.00 445.83,122.50 425.00,122.50" /><polygon fill="#ffff00" points="445.83,105.00 466.67,105.00 466.67,122.50 445.83,122.50" /><polygon fill="#ffff00" points="466.67,105.00 487.50,105.00 487.50,122.50 466.67,122.50" /><polygon fill="#fef100" points="487.50,105.00 508.33,105.00 508.33,122.50 487.50,122.50" /><polygon fill="#ffff00" points="508.33,105.00 529.17,105.00 529.17,122.50 508.33,122.50" /><polygon fill="#ffff00" points="529.17,105.00 550.00,105.00 550.00,122.50 529.17,122.50" /><polygon fill="#feeb00" points="50.00,122.50 70.83,122.50 70.83,140.00 50.00,140.00" /><polygon fill="#ffff00" points="70.83,122.50 91.67,122.50 91.67,140.00 70.83,140.00" /><polygon fill="#fff600" points="91.67,122.50 112.50,122.50 112.50,140.00 91.67,140.00" /><polygon fill="#ffff00" points="112.50,122.50 133.33,122.50 133.33,140.00 112.50,140.00" /><polygon fill="#ffff00" points="133.33,122.50 154.17,122.50 154.17,140.00 133.33,140.00" /><polygon fill="#ffff00" points="154.17,122.50 175.00,122.50 175.00,140.00 154.17,140.00" /><polygon fill="#ffff00" points="175.00,122.50 195.83,122.50 195.83,140.00 175.00,140.00" /><polygon fill="#ffff00" points="195.83,122.50 216.67,122.50 216.67,140.00 195.83,140.00" /><polygon fill="#fffa00" points="216.67,122.50 237.50,122.50 237.50,140.00 216.67,140.00" /><polygon fill="#ffff00" points="237.50,122.50 258.33,122.50 258.33,140.00 237.50,140.00" /><polygon fill="#ffff00" points="258.33,122.50 279.17,122.50 279.17,140.00 258.33,140.00" /><polygon fill="#ffff00" points="279.17,122.50 300.00,122.50 300.00,140.00 279.17,140.00" /><polygon fill="#feeb00" points="300.00,122.50 320.83,122.50 320.83,140.00 300.00,140.00" /><polygon fill="#ffff00" points="320.83,122.50 341.67,122.50 341.67,140.00 320.83,140.00" /><polygon fill="#fffe00" points="341.67,122.50 362.50,122.50 362.50,140.00 341.67,140.00" /><polygon fill="#ffff00" points="362.50,122.50 383.33,122.50 383.33,140.00 362.50,140.00" /><polygon fill="#fffe00" points="383.33,122.50 404.17,122.50 404.17,140.00 383.33,140.00" /><polygon fill="#ffff00" points="404.17,122.50 425.00,122.50 425.00,140.00 404.17,140.00" /><polygon fill="#ffff00" points="425.00,122.50 445.83,122.50 445.83,140.00 425.00,140.00" /><polygon fill="#fffa00" points="445.83,122.50 466.67,122.50 466.67,140.00 445.83,140.00" /><polygon fill="#ffff00" points="466.67,122.50 487.50,122.50 487.50,140.00 466.67,140.00" /><polygon fill="#ffff00" points="487.50,122.50 508.33,122.50 508.33,140.00 487.50,140.00" /><polygon fill="#fffd00" points="508.33,122.50 529.17,122.50 529.17,140.00 508.33,140.00" /><polygon fill="#ffff00" points="529.17,122.50 550.00,122.50 550.00,140.00 529.17,140.00" /><polygon fill="#fff600" points="50.00,140.00 70.83,140.00 70.83,157.50 50.00,157.50" /><polygon fill="#ffff00" points="70.83,140.00 91.67,140.00 91.67,157.50 70.83,157.50" /><polygon fill="#ffff00" points="91.67,140.00 112.50,140.00 112.50,157.50 91.67,157.50" /><polygon fill="#ffff00" points="112.50,140.00 133.33,140.00 133.33,157.50 112.50,157.50" /><polygon fill="#ffff00" points="133.33,140.00 154.17,140.00 154.17,157.50 133.33,157.50" /><polygon fill="#ffff00" points="154.17,140.00 175.00,140.00 175.00,157.50 154.17,157.50" /><polygon fill="#fff600" points="175.00,140.00 195.83,140.00 195.83,157.50 175.00,157.50" /><polygon fill="#ffff00" points="195.83,140.00 216.67,140.00 216.67,157.50 195.83,157.50" /><polygon fill="#ffff00" points="216.67,140.00 237.50,140.00 237.50,157.50 216.67,157.50" /><polygon fill="#ffff00" points="237.50,140.00 258.33,140.00 258.33,157.50 237.50,157.50" /><polygon fill="#ffff00" points="258.33,140.00 279.17,140.00 279.17,157.50 258.33,157.50" /><polygon fill="#ffff00" points="279.17,140.00 300.00,140.00 300.00,157.50 279.17,157.50" /><polygon fill="#ffff00" points="300.00,140.00 320.83,140.00 320.83,157.50 300.00,157.50" /><polygon fill="#ffff00" points="320.83,140.00 341.67,140.00 341.67,157.50 320.83,157.50" /><polygon fill="#ffff00" points="341.67,140.00 362.50,140.00 362.50,157.50 341.67,157.50" /><polygon fill="#fffd00" points="362.50,140.00 383.33,140.00 383.33,157.50 362.50,157.50" /><polygon fill="#ffff00" points="383.33,140.00 404.17,140.00 404.17,157.50 383.33,157.50" /><polygon fill="#ffff00" points="404.17,140.00 425.00,140.00 425.00,157.50 404.17,157.50" /><polygon fill="#fffe00" points="425.00,140.00 445.83,140.00 445.83,157.50 425.00,157.50" /><polygon fill="#ffff00" points="445.83,140.00 466.67,140.00 466.67,157.50 445.83,157.50" /><polygon fill="#ffff00" points="466.67,140.00 487.50,140.00 487.50,157.50 466.67,157.50" /><polygon fill="#ffff00" points="487.50,140.00 508.33,140.00 508.33,157.50 487.50,157.50" /><polygon fill="#ffff00" points="508.33,140.00 529.17,140.00 529.17,157.50 508.33,157.50" /><polygon fill="#ffff00" points="529.17,140.00 550.00,140.00 550.00,157.50 529.17,157.50" /><polygon fill="#fff600" points="50.00,157.50 70.83,157.50 70.83,175.00 50.00,175.00" /><polygon fill="#ffff00" points="70.83,157.50 91.67,157.50 91.67,175.00 70.83,175.00" /><polygon fill="#ffff00" points="91.67,157.50 112.50,157.50 112.50,175.00 91.67,175.00" /><polygon fill="#ffff00" points="112.50,157.50 133.33,157.50 133.33,175.00 112.50,175.00" /><polygon fill="#ffff00" points="133.33,157.50 154.17,157.50 154.17,175.00 133.33,175.00" /><polygon fill="#fffe00" points="154.17,157.50 175.00,157.50 175.00,175.00 154.17,175.00" /><polygon fill="#ffff00" points="175.00,157.50 195.83,157.50 195.83,175.00 175.00,175.00" /><polygon fill="#ffff00" points="195.83,157.50 216.67,157.50 216.67,175.00 195.83,175.00" /><polygon fill="#ffff00" points="216.67,157.50 237.50,157.50 237.50,175.00 216.67,175.00" /><polygon fill="#ffff00" points="237.50,157.50 258.33,157.50 258.33,175.00 237.50,175.00" /><polygon fill="#ffff00" points="258.33,157.50 279.17,157.50 279.17,175.00 258.33,175.00" /><polygon fill="#ffff00" points="279.17,157.50 300.00,157.50 300.00,175.00 279.17,175.00" /><polygon fill="#fffa00" points="300.00,157.50 320.83,157.50 320.83,175.00 300.00,175.00" /><polygon fill="#ffff00" points="320.83,157.50 341.67,157.50 341.67,175.00 320.83,175.00" /><polygon fill="#ffff00" points="341.67,157.50 362.50,157.50 362.50,175.00 341.67,175.00" /><polygon fill="#fffd00" points="362.50,157.50 383.33,157.50 383.33,175.00 362.50,175.00" /><polygon fill="#ffff00" points="383.33,157.50 404.17,157.50 404.17,175.00 383.33,175.00" /><polygon fill="#ffff00" points="404.17,157.50 425.00,157.50 425.00,175.00 404.17,175.00" /><polygon fill="#ffff00" points="425.00,157.50 445.83,157.50 445.83,175.00 425.00,175.00" /><polygon fill="#ffff00" points="445.83,157.50 466.67,157.50 466.67,175.00 445.83,175.00" /><polygon fill="#ffff00" points="466.67,157.50 487.50,157.50 487.50,175.00 466.67,175.00" /><polygon fill="#ffff00" points="487.50,157.50 508.33,157.50 508.33,175.00 487.50,175.00" /><polygon fill="#ffff00" points="508.33,157.50 529.17,157.50 529.17,175.00 508.33,175.00" /><polygon fill="#ffff00" points="529.17,157.50 550.00,157.50 550.00,175.00 529.17,175.00" /><polygon fill="#ffff00" points="50.00,175.00 70.83,175.00 70.83,192.50 50.00,192.50" /><polygon fill="#ffff00" points="70.83,175.00 91.67,175.00 91.67,192.50 70.83,192.50" /><polygon fill="#ffff00" points="91.67,175.00 112.50,175.00 112.50,192.50 91.67,192.50" /><polygon fill="#ffff00" points="112.50,175.00 133.33,175.00 133.33,192.50 112.50,192.50" /><polygon fill="#ffff00" points="133.33,175.00 154.17,175.00 154.17,192.50 133.33,192.50" /><polygon fill="#ffff00" points="154.17,175.00 175.00,175.00 175.00,192.50 154.17,192.50" /><polygon fill="#ffff00" points="175.00,175.00 195.83,175.00 195.83,192.50 175.00,192.50" /><polygon fill="#ffff00" points="195.83,175.00 216.67,175.00 216.67,192.50 195.83,192.50" /><polygon fill="#ffff00" points="216.67,175.00 237.50,175.00 237.50,192.50 216.67,192.50" /><polygon fill="#ffff00" points="237.50,175.00 258.33,175.00 258.33,192.50 237.50,192.50" /><polygon fill="#ffff00" points="258.33,175.00 279.17,175.00 279.17,192.50 258.33,192.50" /><polygon fill="#ffff00" points="279.17,175.00 300.00,175.00 300.00,192.50 279.17,192.50" /><polygon fill="#ffff00" points="300.00,175.00 320.83,175.00 320.83,192.50 300.00,192.50" /><polygon fill="#ffff00" points="320.83,175.00 341.67,175.00 341.67,192.50 320.83,192.50" /><polygon fill="#ffff00" points="341.67,175.00 362.50,175.00 362.50,192.50 341.67,192.50" /><polygon fill="#ffff00" points="362.50,175.00 383.33,175.00 383.33,192.50 362.50,192.50" /><polygon fill="#ffff00" points="383.33,175.00 404.17,175.00 404.17,192.50 383.33,192.50" /><polygon fill="#ffff00" points="404.17,175.00 425.00,175.00 425.00,192.50 404.17,192.50" /><polygon fill="#ffff00" points="425.00,175.00 445.83,175.00 445.83,192.50 425.00,192.50" /><polygon fill="#ffff00" points="445.83,175.00 466.67,175.00 466.67,192.50 445.83,192.50" /><polygon fill="#ffff00" points="466.67,175.00 487.50,175.00 487.50,192.50 466.67,192.50" /><polygon fill="#ffff00" points="487.50,175.00 508.33,175.00 508.33,192.50 487.50,192.50" /><polygon fill="#ffff00" points="508.33,175.00 529.17,175.00 529.17,192.50 508.33,192.50" /><polygon fill="#ffff00" points="529.17,175.00 550.00,175.00 550.00,192.50 529.17,192.50" /><polygon fill="#ffff00" points="50.00,192.50 70.83,192.50 70.83,210.00 50.00,210.00" /><polygon fill="#ffff00" points="70.83,192.50 91.67,192.50 91.67,210.00 70.83,210.00" /><polygon fill="#ffff00" points="91.67,192.50 112.50,192.50 112.50,210.00 91.67,210.00" /><polygon fill="#ffff00" points="112.50,192.50 133.33,192.50 133.33,210.00 112.50,210.00" /><polygon fill="#ffff00" points="133.33,192.50 154.17,192.50 154.17,210.00 133.33,210.00" /><polygon fill="#ffff00" points="154.17,192.50 175.00,192.50 175.00,210.00 154.17,210.00" /><polygon fill="#ffff00" points="175.00,192.50 195.83,192.50 195.83,210.00 175.00,210.00" /><polygon fill="#ffff00" points="195.83,192.50 216.67,192.50 216.67,210.00 195.83,210.00" /><polygon fill="#ffff00" points="216.67,192.50 237.50,192.50 237.50,210.00 216.67,210.00" /><polygon fill="#ffff00" points="237.50,192.50 258.33,192.50 258.33,210.00 237.50,210.00" /><polygon fill="#ffff00" points="258.33,192.50 279.17,192.50 279.17,210.00 258.33,210.00" /><polygon fill="#ffff00" points="279.17,192.50 300.00,192.50 300.00,210.00 279.17,210.00" /><polygon fill="#fffe00" points="300.00,192.50 320.83,192.50 320.83,210.00 300.00,210.00" /><polygon fill="#ffff00" points="320.83,192.50 341.67,192.50 341.67,210.00 320.83,210.00" /><polygon fill="#ffff00" points="341.67,192.50 362.50,192.50 362.50,210.00 341.67,210.00" /><polygon fill="#ffff00" points="362.50,192.50 383.33,192.50 383.33,210.00 362.50,210.00" /><polygon fill="#ffff00" points="383.33,192.50 404.17,192.50 404.17,210.00 383.33,210.00" /><polygon fill="#ffff00" points="404.17,192.50 425.00,192.50 425.00,210.00 404.17,210.00" /><polygon fill="#ffff00" points="425.00,192.50 445.83,192.50 445.83,210.00 425.00,210.00" /><polygon fill="#ffff00" points="445.83,192.50 466.67,192.50 466.67,210.00 445.83,210.00" /><polygon fill="#ffff00" points="466.67,192.50 487.50,192.50 487.50,210.00 466.67,210.00" /><polygon fill="#ffff00" points="487.50,192.50 508.33,192.50 508.33,210.00 487.50,210.00" /><polygon fill="#ffff00" points="508.33,192.50 529.17,192.50 529.17,210.00 508.33,210.00" /><polygon fill="#ffff00" points="529.17,192.50 550.00,192.50 550.00,210.00 529.17,210.00" /><polygon fill="#ffff00" points="50.00,210.00 70.83,210.00 70.83,227.50 50.00,227.50" /><polygon fill="#ffff00" points="70.83,210.00 91.67,210.00 91.67,227.50 70.83,227.50" /><polygon fill="#ffff00" points="91.67,210.00 112.50,210.00 112.50,227.50 91.67,227.50" /><polygon fill="#ffff00" points="112.50,210.00 133.33,210.00 133.33,227.50 112.50,227.50" /><polygon fill="#ffff00" points="133.33,210.00 154.17,210.00 154.17,227.50 133.33,227.50" /><polygon fill="#ffff00" points="154.17,210.00 175.00,210.00 175.00,227.50 154.17,227.50" /><polygon fill="#ffff00" points="175.00,210.00 195.83,210.00 195.83,227.50 175.00,227.50" /><polygon fill="#ffff00" points="195.83,210.00 216.67,210.00 216.67,227.50 195.83,227.50" /><polygon fill="#ffff00" points="216.67,210.00 237.50,210.00 237.50,227.50 216.67,227.50" /><polygon fill="#ffff00" points="237.50,210.00 258.33,210.00 258.33,227.50 237.50,227.50" /><polygon fill="#ffff00" points="258.33,210.00 279.17,210.00 279.17,227.50 258.33,227.50" /><polygon fill="#ffff00" points="279.17,210.00 300.00,210.00 300.00,227.50 279.17,227.50" /><polygon fill="#ffff00" points="300.00,210.00 320.83,210.00 320.83,227.50 300.00,227.50" /><polygon fill="#ffff00" points="320.83,210.00 341.67,210.00 341.67,227.50 320.83,227.50" /><polygon fill="#ffff00" points="341.67,210.00 362.50,210.00 362.50,227.50 341.67,227.50" /><polygon fill="#ffff00" points="362.50,210.00 383.33,210.00 383.33,227.50 362.50,227.50" /><polygon fill="#ffff00" points="383.33,210.00 404.17,210.00 404.17,227.50 383.33,227.50" /><polygon fill="#ffff00" points="404.17,210.00 425.00,210.00 425.00,227.50 404.17,227.50" /><polygon fill="#ffff00" points="425.00,210.00 445.83,210.00 445.83,227.50 425.00,227.50" /><polygon fill="#ffff00" points="445.83,210.00 466.67,210.00 466.67,227.50 445.83,227.50" /><polygon fill="#ffff00" points="466.67,210.00 487.50,210.00 487.50,227.50 466.67,227.50" /><polygon fill="#ffff00" points="487.50,210.00 508.33,210.00 508.33,227.50 487.50,227.50" /><polygon fill="#ffff00" points="508.33,210.00 529.17,210.00 529.17,227.50 508.33,227.50" /><polygon fill="#ffff00" points="529.17,210.00 550.00,210.00 550.00,227.50 529.17,227.50" /><polygon fill="#ffff00" points="50.00,227.50 70.83,227.50 70.83,245.00 50.00,245.00" /><polygon fill="#ffff00" points="70.83,227.50 91.67,227.50 91.67,245.00 70.83,245.00" /><polygon fill="#ffff00" points="91.67,227.50 112.50,227.50 112.50,245.00 91.67,245.00" /><polygon fill="#ffff00" points="112.50,227.50 133.33,227.50 133.33,245.00 112.50,245.00" /><polygon fill="#ffff00" points="133.33,227.50 154.17,227.50 154.17,245.00 133.33,245.00" /><polygon fill="#ffff00" points="154.17,227.50 175.00,227.50 175.00,245.00 154.17,245.00" /><polygon fill="#ffff00" points="175.00,227.50 195.83,227.50 195.83,245.00 175.00,245.00" /><polygon fill="#ffff00" points="195.83,227.50 216.67,227.50 216.67,245.00 195.83,245.00" /><polygon fill="#ffff00" points="216.67,227.50 237.50,227.50 237.50,245.00 216.67,245.00" /><polygon fill="#ffff00" points="237.50,227.50 258.33,227.50 258.33,245.00 237.50,245.00" /><polygon fill="#ffff00" points="258.33,227.50 279.17,227.50 279.17,245.00 258.33,245.00" /><polygon fill="#ffff00" points="279.17,227.50 300.00,227.50 300.00,245.00 279.17,245.00" /><polygon fill="#ffff00" points="300.00,227.50 320.83,227.50 320.83,245.00 300.00,245.00" /><polygon fill="#ffff00" points="320.83,227.50 341.67,227.50 341.67,245.00 320.83,245.00" /><polygon fill="#ffff00" points="341.67,227.50 362.50,227.50 362.50,245.00 341.67,245.00" /><polygon fill="#ffff00" points="362.50,227.50 383.33,227.50 383.33,245.00 362.50,245.00" /><polygon fill="#ffff00" points="383.33,227.50 404.17,227.50 404.17,245.00 383.33,245.00" /><polygon fill="#ffff00" points="404.17,227.50 425.00,227.50 425.00,245.00 404.17,245.00" /><polygon fill="#ffff00" points="425.00,227.50 445.83,227.50 445.83,245.00 425.00,245.00" /><polygon fill="#ffff00" points="445.83,227.50 466.67,227.50 466.67,245.00 445.83,245.00" /><polygon fill="#ffff00" points="466.67,227.50 487.50,227.50 487.50,245.00 466.67,245.00" /><polygon fill="#ffff00" points="487.50,227.50 508.33,227.50 508.33,245.00 487.50,245.00" /><polygon fill="#ffff00" points="508.33,227.50 529.17,227.50 529.17,245.00 508.33,245.00" /><polygon fill="#ffff00" points="529.17,227.50 550.00,227.50 550.00,245.00 529.17,245.00" /><polygon fill="#ffff00" points="50.00,245.00 70.83,245.00 70.83,262.50 50.00,262.50" /><polygon fill="#ffff00" points="70.83,245.00 91.67,245.00 91.67,262.50 70.83,262.50" /><polygon fill="#ffff00" points="91.67,245.00 112.50,245.00 112.50,262.50 91.67,262.50" /><polygon fill="#ffff00" points="112.50,245.00 133.33,245.00 133.33,262.50 112.50,262.50" /><polygon fill="#ffff00" points="133.33,245.00 154.17,245.00 154.17,262.50 133.33,262.50" /><polygon fill="#ffff00" points="154.17,245.00 175.00,245.00 175.00,262.50 154.17,262.50" /><polygon fill="#ffff00" points="175.00,245.00 195.83,245.00 195.83,262.50 175.00,262.50" /><polygon fill="#ffff00" points="195.83,245.00 216.67,245.00 216.67,262.50 195.83,262.50" /><polygon fill="#ffff00" points="216.67,245.00 237.50,245.00 237.50,262.50 216.67,262.50" /><polygon fill="#ffff00" points="237.50,245.00 258.33,245.00 258.33,262.50 237.50,262.50" /><polygon fill="#ffff00" points="258.33,245.00 279.17,245.00 279.17,262.50 258.33,262.50" /><polygon fill="#ffff00" points="279.17,245.00 300.00,245.00 300.00,262.50 279.17,262.50" /><polygon fill="#ffff00" points="300.00,245.00 320.83,245.00 320.83,262.50 300.00,262.50" /><polygon fill="#ffff00" points="320.83,245.00 341.67,245.00 341.67,262.50 320.83,262.50" /><polygon fill="#ffff00" points="341.67,245.00 362.50,245.00 362.50,262.50 341.67,262.50" /><polygon fill="#ffff00" points="362.50,245.00 383.33,245.00 383.33,262.50 362.50,262.50" /><polygon fill="#ffff00" points="383.33,245.00 404.17,245.00 404.17,262.50 383.33,262.50" /><polygon fill="#ffff00" points="404.17,245.00 425.00,245.00 425.00,262.50 404.17,262.50" /><polygon fill="#ffff00" points="425.00,245.00 445.83,245.00 445.83,262.50 425.00,262.50" /><polygon fill="#ffff00" points="445.83,245.00 466.67,245.00 466.67,262.50 445.83,262.50" /><polygon fill="#ffff00" points="466.67,245.00 487.50,245.00 487.50,262.50 466.67,262.50" /><polygon fill="#ffff00" points="487.50,245.00 508.33,245.00 508.33,262.50 487.50,262.50" /><polygon fill="#ffff00" points="508.33,245.00 529.17,245.00 529.17,262.50 508.33,262.50" /><polygon fill="#ffff00" points="529.17,245.00 550.00,245.00 550.00,262.50 529.17,262.50" /><polygon fill="#ffff00" points="50.00,262.50 70.83,262.50 70.83,280.00 50.00,280.00" /><polygon fill="#ffff00" points="70.83,262.50 91.67,262.50 91.67,280.00 70.83,280.00" /><polygon fill="#ffff00" points="91.67,262.50 112.50,262.50 112.50,280.00 91.67,280.00" /><polygon fill="#ffff00" points="112.50,262.50 133.33,262.50 133.33,280.00 112.50,280.00" /><polygon fill="#ffff00" points="133.33,262.50 154.17,262.50 154.17,280.00 133.33,280.00" /><polygon fill="#ffff00" points="154.17,262.50 175.00,262.50 175.00,280.00 154.17,280.00" /><polygon fill="#ffff00" points="175.00,262.50 195.83,262.50 195.83,280.00 175.00,280.00" /><polygon fill="#ffff00" points="195.83,262.50 216.67,262.50 216.67,280.00 195.83,280.00" /><polygon fill="#ffff00" points="216.67,262.50 237.50,262.50 237.50,280.00 216.67,280.00" /><polygon fill="#ffff00" points="237.50,262.50 258.33,262.50 258.33,280.00 237.50,280.00" /><polygon fill="#ffff00" points="258.33,262.50 279.17,262.50 279.17,280.00 258.33,280.00" /><polygon fill="#ffff00" points="279.17,262.50 300.00,262.50 300.00,280.00 279.17,280.00" /><polygon fill="#ffff00" points="300.00,262.50 320.83,262.50 320.83,280.00 300.00,280.00" /><polygon fill="#ffff00" points="320.83,262.50 341.67,262.50 341.67,280.00 320.83,280.00" /><polygon fill="#ffff00" points="341.67,262.50 362.50,262.50 362.50,280.00 341.67,280.00" /><polygon fill="#ffff00" points="362.50,262.50 383.33,262.50 383.33,280.00 362.50,280.00" /><polygon fill="#ffff00" points="383.33,262.50 404.17,262.50 404.17,280.00 383.33,280.00" /><polygon fill="#ffff00" points="404.17,262.50 425.00,262.50 425.00,280.00 404.17,280.00" /><polygon fill="#ffff00" points="425.00,262.50 445.83,262.50 445.83,280.00 425.00,280.00" /><polygon fill="#ffff00" points="445.83,262.50 466.67,262.50 466.67,280.00 445.83,280.00" /><polygon fill="#ffff00" points="466.67,262.50 487.50,262.50 487.50,280.00 466.67,280.00" /><polygon fill="#ffff00" points="487.50,262.50 508.33,262.50 508.33,280.00 487.50,280.00" /><polygon fill="#ffff00" points="508.33,262.50 529.17,262.50 529.17,280.00 508.33,280.00" /><polygon fill="#ffff00" points="529.17,262.50 550.00,262.50 550.00,280.00 529.17,280.00" /></g><g stroke="black"><line x1="50.00" x2="50.00" y1="280.00" y2="290.00" /><line x1="258.33" x2="258.33" y1="280.00" y2="290.00" /><line x1="466.67" x2="466.67" y1="280.00" y2="290.00" /><line x1="154.17" x2="154.17" y1="280.00" y2="285.00" /><line x1="362.50" x2="362.50" y1="280.00" y2="285.00" /><g fill="black" font-family="Arial, sans-serif" font-size="10" stroke="none" text-anchor="middle"><text x="50.00" y="300.00">0.00</text><text x="258.33" y="300.00">10.00</text><text x="466.67" y="300.00">20.00</text></g><line x1="50.00" x2="550.00" y1="280.00" y2="280.00" /></g><g stroke="black"><line x1="50.00" x2="40.00" y1="0.00" y2="0.00" /><line x1="50.00" x2="40.00" y1="17.50" y2="17.50" /><line x1="50.00" x2="40.00" y1="35.00" y2="35.00" /><line x1="50.00" x2="40.00" y1="52.50" y2="52.50" /><line x1="50.00" x2="40.00" y1="70.00" y2="70.00" /><line x1="50.00" x2="40.00" y1="87.50" y2="87.50" /><line x1="50.00" x2="40.00" y1="105.00" y2="105.00" /><line x1="50.00" x2="40.00" y1="122.50" y2="122.50" /><line x1="50.00" x2="40.00" y1="140.00" y2="140.00" /><line x1="50.00" x2="40.00" y1="157.50" y2="157.50" /><line x1="50.00" x2="40.00" y1="175.00" y2="175.00" /><line x1="50.00" x2="40.00" y1="192.50" y2="192.50" /><line x1="50.00" x2="40.00" y1="210.00" y2="210.00" /><line x1="50.00" x2="40.00" y1="227.50" y2="227.50" /><line x1="50.00" x2="40.00" y1="245.00" y2="245.00" /><line x1="50.00" x2="40.00" y1="262.50" y2="262.50" /><line x1="50.00" x2="40.00" y1="280.00" y2="280.00" /><g fill="black" font-family="Arial, sans-serif" font-size="10" stroke="none" text-anchor="end"><text x="35.00" y="0.00">0.00</text><text x="35.00" y="17.50">1.00</text><text x="35.00" y="35.00">2.00</text><text x="35.00" y="52.50">3.00</text><text x="35.00" y="70.00">4.00</text><text x="35.00" y="87.50">5.00</text><text x="35.00" y="105.00">6.00</text><text x="35.00" y="122.50">7.00</text><text x="35.00" y="140.00">8.00</text><text x="35.00" y="157.50">9.00</text><text x="35.00" y="175.00">10.00</text><text x="35.00" y="192.50">11.00</text><text x="35.00" y="210.00">12.00</text><text x="35.00" y="227.50">13.00</text><text x="35.00" y="245.00">14.00</text><text x="35.00" y="262.50">15.00</text><text x="35.00" y="280.00">16.00</text></g><line x1="50.00" x2="50.00" y1="0.00" y2="280.00" /></g></g></svg>